<?xml version="1.0" standalone="no"?>
<!DOCTYPE svg PUBLIC "-//W3C//DTD SVG 20010904//EN"
 "http://www.w3.org/TR/2001/REC-SVG-20010904/DTD/svg10.dtd">
<svg version="1.0" xmlns="http://www.w3.org/2000/svg"
 width="375.000000pt" height="666.000000pt" viewBox="0 0 375.000000 666.000000"
 preserveAspectRatio="xMidYMid meet">
<metadata>
Created by potrace 1.16, written by Peter Selinger 2001-2019
</metadata>
<g transform="translate(0.000000,666.000000) scale(0.100000,-0.100000)"
fill="#000000" stroke="none">
<path d="M931 5585 c-42 -19 -86 -62 -100 -98 -8 -20 -11 -381 -11 -1158 0
-1109 0 -1130 20 -1172 21 -45 67 -82 120 -97 33 -10 1776 -12 1837 -3 17 3
45 18 62 35 l31 30 0 1192 c0 935 -3 1196 -13 1216 -7 13 -30 35 -52 47 l-40
23 -910 -1 c-777 0 -915 -2 -944 -14z m1889 -2325 c0 -105 -1 -110 -24 -125
-22 -15 -116 -16 -925 -13 -897 3 -900 3 -928 24 -15 12 -34 38 -42 59 -20 51
0 110 48 142 l34 23 918 0 919 0 0 -110z"/>
</g>
</svg>
