<?xml version="1.0" encoding="utf-8"?>
<!DOCTYPE svg PUBLIC "-//W3C//DTD SVG 1.0//EN" "http://www.w3.org/TR/2001/REC-SVG-20010904/DTD/svg10.dtd">
<svg version="1.0" xmlns="http://www.w3.org/2000/svg" width="375px" height="666px" viewBox="0 0 375 666" preserveAspectRatio="xMidYMid meet">
 <g fill="#0288d1" stroke="#0288d1" stroke-width="1">
  <path d="M101.5 359 c-3.8 -0.3 -7.9 -1 -9 -1.7 -3 -1.7 -5.9 -5.2 -5.1 -6.1 0.4 -0.4 42.6 -0.5 93.7 -0.3 106.5 0.4 97.9 1.2 97.9 -8.4 l0 -5.5 3.5 0 c2.4 0 3.5 0.5 3.5 1.5 0 0.8 0.5 1.5 1 1.5 0.6 0 1 2.7 1 6 0 5.4 -0.3 6.4 -3.2 9.4 l-3.3 3.4 -86.5 0.4 c-47.6 0.2 -89.6 0.1 -93.5 -0.2z"/>
  <path d="M88.9 302.9 c-0.1 -12.9 -0.3 -47.9 -0.5 -77.9 -0.3 -30 -0.2 -68.1 0.2 -84.7 l0.6 -30.2 4.2 -1.6 c3.6 -1.4 14.3 -1.5 94.6 -1.3 84.3 0.3 90.7 0.4 93.7 2.1 6.7 3.6 6.3 -3.1 6.3 111.7 l0 104 -91 0 c-66.6 0 -91 -0.3 -91 -1.1 0 -0.8 -0.4 -0.8 -1.4 0 -0.8 0.7 -4.6 1.5 -8.5 1.8 l-7.1 0.6 -0.1 -23.4z m16.8 -28.6 c-0.1 -4.3 -0.3 -1 -0.3 7.2 0 8.3 0.2 11.8 0.3 7.8 0.2 -4 0.2 -10.7 0 -15z m0 -49 c-0.2 -1.6 -0.4 -0.5 -0.4 2.2 0 2.8 0.2 4 0.4 2.8 0.2 -1.3 0.2 -3.5 0 -5z m0 -43.1 c-0.1 -5.3 -0.3 -0.7 -0.3 10.3 0 11 0.2 15.4 0.3 9.7 0.2 -5.7 0.2 -14.7 0 -20z m0 -52.4 c-0.1 -4 -0.3 -1 -0.3 6.7 0 7.7 0.1 11 0.3 7.3 0.2 -3.7 0.2 -10 0 -14z"/>
 </g>
 <g fill="#01579b">
  <path d="M87.7 353.5 c-4.7 -3.4 -4.7 -2.5 -4.7 -121.6 0 -122.5 -0.2 -117.6 5.8 -121.1 l2.7 -1.6 0.1 106.5 c0.1 58.5 0.4 106.7 0.7 106.9 0.3 0.3 2.5 0.2 4.9 -0.3 l4.3 -0.9 0.3 -107.2 0.2 -107.2 2.9 0 c2.6 0 2.9 0.3 3.4 4.8 0.3 2.6 0.6 50.4 0.6 106.2 0 55.8 0 102.1 0 102.8 0.1 0.9 18.7 1.2 89.6 1.2 l89.5 0 0 10.5 c0 8.4 -0.3 10.5 -1.4 10.5 -0.8 0 -1.7 1.3 -2.1 2.9 -0.3 1.6 -1.7 3.9 -3.1 5.1 l-2.4 2.3 0 -10.6 0 -10.7 -88.5 0 c-95.8 0 -92.1 -0.2 -95.9 5.2 -2.4 3.4 -1.9 6.6 1.4 10 1.7 1.6 3 3.5 3 4.3 0 2.4 -8.6 4 -11.3 2z m195 -9.2 c-0.3 -1 -0.5 -0.2 -0.5 1.7 0 1.9 0.2 2.7 0.5 1.8 0.2 -1 0.2 -2.6 0 -3.5z"/>
  <path d="M131.8 305.8 c-1.5 -2.8 -3.7 -4.9 -6.1 -6.1 l-3.7 -1.7 0 -82.5 c0 -77.7 0.1 -82.6 1.8 -83.2 3.2 -1.2 6.7 -4.4 8.2 -7.6 l1.5 -3.2 62.6 -0.3 62.7 -0.2 1.2 2.9 c1.3 3.2 4.7 6.8 8.2 8.5 l2.3 1.2 0.2 81.4 c0.2 44.8 -0.1 82 -0.5 82.5 -0.4 0.6 -2 1.7 -3.7 2.5 -1.6 0.9 -4.2 3.5 -5.8 5.8 l-2.8 4.2 -61.9 0 -61.9 0 -2.3 -4.2z m127.7 -7.4 l6 -5.7 0.3 -77.2 0.3 -77.3 -3.1 -1.8 c-1.7 -1 -4.2 -3.5 -5.5 -5.6 l-2.5 -3.8 -58.1 0 -58.1 0 -5.9 5.9 -5.9 5.9 0 77.6 0 77.5 3 1.6 c1.6 0.8 4.2 3.1 5.7 5 l2.8 3.5 57.5 0 57.5 0 6 -5.6z"/>
 </g>
 <g fill="#e3d5b3">
  <path d="M100.9 353 c-6.5 -0.6 -9.3 -2.5 -11 -7.7 -1.5 -4.6 0.2 -10.4 3.8 -13.2 2.5 -2.1 3.3 -2.1 94.2 -2.1 70 0 92 0.3 92.9 1.2 0.8 0.8 1.2 4.6 1.2 10.5 0 8.8 -0.1 9.3 -2.5 10.9 -2.4 1.5 -9.7 1.6 -87.8 1.3 -46.9 -0.2 -87.7 -0.6 -90.8 -0.9z"/>
 </g>
 <g fill="#c0b588">
  <path d="M279.2 351.1 c-0.8 -0.5 -1 -3.1 -0.7 -8.3 0.4 -5.7 0.2 -7.8 -0.9 -8.7 -1 -0.8 -24.6 -1.1 -91.2 -0.9 l-89.9 0.3 -2.9 2.3 c-1.6 1.2 -3.1 2 -3.3 1.8 -1 -0.9 2 -4.8 5 -6.6 3.1 -1.9 5.9 -2 95 -2 l91.7 0 0 10.9 c0 10.8 -0.5 12.7 -2.8 11.2z"/>
 </g>
</svg>