<?xml version="1.0" encoding="UTF-8"?>
<svg version="1.1" xmlns="http://www.w3.org/2000/svg" width="532" height="469">
<path d="M0 0 C2.24300851 -0.00678127 4.48601145 -0.01568726 6.72900391 -0.02655029 C12.80127607 -0.04928784 18.87312209 -0.04053024 24.94540143 -0.02465487 C31.30865937 -0.01196886 37.67188157 -0.02374335 44.03514099 -0.03158569 C55.40233507 -0.04125527 66.76931338 -0.02574883 78.13646429 -0.00028901 C88.43010182 0.02205301 98.72345739 0.01816225 109.01708984 -0.00488281 C120.99058484 -0.0316764 132.96390878 -0.04158182 144.93744415 -0.02682149 C151.26846486 -0.01903607 157.5992916 -0.01796079 163.93029976 -0.03450394 C169.88210209 -0.04897088 175.83337304 -0.03888548 181.7851181 -0.01003265 C183.9663524 -0.00343415 186.14763159 -0.00529827 188.32884789 -0.01634598 C191.31228402 -0.03006121 194.29402985 -0.01281266 197.27735901 0.01205444 C198.1353494 0.00090083 198.99333979 -0.01025277 199.87732989 -0.02174437 C206.31330407 0.08192722 210.64505859 2.13067028 215.98608398 5.64697266 C215.98608398 6.30697266 215.98608398 6.96697266 215.98608398 7.64697266 C216.64608398 7.64697266 217.30608398 7.64697266 217.98608398 7.64697266 C221.39033278 13.98595464 221.4116615 19.57524688 221.37376404 26.67895508 C221.38184234 28.49361535 221.38184234 28.49361535 221.39008385 30.34493542 C221.40189304 33.69064474 221.40030267 37.03585437 221.39291704 40.38154364 C221.38818085 43.99442691 221.40069911 47.60725711 221.41093445 51.22012329 C221.42811829 58.2928547 221.42896343 65.36549724 221.42372154 72.4382441 C221.41967827 78.18697781 221.42112527 83.93568527 221.4264698 89.68441772 C221.42721822 90.50295516 221.42796665 91.3214926 221.42873775 92.1648342 C221.43026924 93.82773535 221.43180759 95.49063649 221.43335272 97.15353763 C221.44707595 112.7424763 221.44164104 128.33136475 221.4301675 143.92030227 C221.42023264 158.18033556 221.43318046 172.44023913 221.4571017 186.70025241 C221.48148576 201.34661206 221.49110244 215.99291127 221.48444897 230.63929081 C221.48095555 238.86050756 221.48319705 247.08162452 221.5007 255.30282593 C221.51541321 262.30037963 221.51606889 269.29776326 221.49862909 276.2953136 C221.49010984 279.86485568 221.48799178 283.43409382 221.50328064 287.00362015 C221.51965383 290.87423288 221.50499648 294.74437535 221.48728943 298.61499023 C221.49689444 299.7415462 221.50649944 300.86810217 221.51639551 302.0287962 C221.45569452 308.46551756 220.83032164 312.41659091 216.98608398 317.64697266 C211.56118526 322.67492757 207.11275536 322.79327324 199.98542786 322.78068542 C199.05337562 322.78295098 198.12132338 322.78521654 197.16102713 322.78755075 C194.02433116 322.79390269 190.88767827 322.79306061 187.75097656 322.79223633 C185.50738468 322.79522714 183.26379332 322.79862948 181.02020264 322.80241394 C174.9146632 322.81126761 168.80913777 322.81359267 162.70359254 322.81422973 C157.60927166 322.81517808 152.51495407 322.81885565 147.42063445 322.82240182 C136.08747001 322.83008622 124.75431426 322.83306998 113.4211481 322.83239647 C112.74092411 322.83235651 112.06070012 322.83231656 111.35986328 322.83227539 C110.67880749 322.83223451 109.99775169 322.83219363 109.29605784 322.83215151 C98.266511 322.83174534 87.23699835 322.84130678 76.20746139 322.85541376 C64.88007995 322.86978717 53.55272035 322.87650035 42.22532767 322.87581998 C35.86690123 322.87556495 29.50851344 322.87841898 23.15009499 322.88899803 C17.16737097 322.89867956 11.18472253 322.89875775 5.20199585 322.8914814 C3.0074369 322.89043553 0.81287325 322.89279859 -1.38167763 322.89884186 C-4.38065444 322.90656451 -7.37937044 322.90191497 -10.37834167 322.89421082 C-11.24401974 322.89935438 -12.10969781 322.90449794 -13.00160855 322.90979737 C-18.32691079 322.87962897 -22.89428988 322.13044738 -28.01391602 320.64697266 C-28.01391602 319.98697266 -28.01391602 319.32697266 -28.01391602 318.64697266 C-28.57079102 318.58509766 -29.12766602 318.52322266 -29.70141602 318.45947266 C-33.98910045 316.95298894 -36.1987626 314.34249495 -38.11519957 310.35629857 C-40.8324973 303.30125122 -41.58522808 297.20126829 -41.52185059 289.67892456 C-41.53121053 287.94700904 -41.53121053 287.94700904 -41.54075956 286.18010533 C-41.5566261 282.33795716 -41.54410953 278.49644898 -41.53149414 274.65429688 C-41.53471894 271.88897402 -41.54389823 269.12367777 -41.55273438 266.35836792 C-41.57046502 259.6437589 -41.56670443 252.92932932 -41.55508381 246.21471344 C-41.54602968 240.75594197 -41.54483402 235.29722059 -41.54917908 229.83844376 C-41.54979201 229.05988078 -41.55040494 228.28131781 -41.55103645 227.47916202 C-41.55231541 225.89727646 -41.55361227 224.31539091 -41.55492681 222.73350538 C-41.56631623 207.92180265 -41.5532439 193.11019916 -41.53172535 178.29851271 C-41.51384878 165.60065155 -41.51696622 152.90293666 -41.53540039 140.20507812 C-41.55682395 125.4412572 -41.56522516 110.67752307 -41.55295134 95.91368878 C-41.5516772 94.33841587 -41.55041972 92.76314296 -41.54917908 91.18787003 C-41.54856198 90.4129022 -41.54794487 89.63793438 -41.54730907 88.83948269 C-41.54386115 83.3888257 -41.54967231 77.93822396 -41.55909729 72.48757553 C-41.57033488 65.84296645 -41.56724011 59.1985463 -41.54597431 52.55395876 C-41.53548824 49.16634274 -41.53346607 45.77930091 -41.54457092 42.39164734 C-41.55551304 38.71446965 -41.54177702 35.03817501 -41.52185059 31.36105347 C-41.53077347 30.29752494 -41.53969636 29.23399641 -41.54888964 28.13823974 C-41.46576613 20.22150976 -39.76158628 14.20278123 -34.88891602 7.89697266 C-23.90120932 -0.70210215 -13.42271278 -0.06805405 0 0 Z " fill="#2B5F46" transform="translate(181.013916015625,64.35302734375)"/>
<path d="M0 0 C2.97 0 5.94 0 9 0 C9 89.43 9 178.86 9 271 C83.25 271 157.5 271 234 271 C234 278.26 234 285.52 234 293 C233.34 293 232.68 293 232 293 C232.04125 294.216875 232.0825 295.43375 232.125 296.6875 C232.10619088 300.2298845 231.90612106 302.91389924 230 306 C228.35 306.66 226.7 307.32 225 308 C225 298.43 225 288.86 225 279 C195.69104344 279.01450987 166.38222128 279.05242436 137.07335287 279.12685562 C133.61246031 279.13562228 130.15156725 279.1441721 126.69067383 279.15258789 C126.00167799 279.15426695 125.31268215 279.15594602 124.60280765 279.15767596 C113.44953761 279.18433918 102.29631896 279.19344055 91.14302032 279.19604143 C79.69700903 279.19910187 68.25118452 279.22143082 56.80523211 279.26052457 C50.37687254 279.28187038 43.94876392 279.29444686 37.52036858 279.28615379 C31.47020739 279.27862396 25.42055511 279.29439393 19.37048721 279.32806015 C17.14972623 279.33630616 14.92891476 279.33602846 12.70815849 279.32659721 C9.67531647 279.314992 6.64414694 279.3340693 3.61143494 279.36076355 C2.73301577 279.35009029 1.8545966 279.33941703 0.94955868 279.32842034 C-4.9691623 279.42558548 -8.72106832 280.83441101 -13 285 C-16.04472147 289.41975697 -16.8986981 293.72014866 -16 299 C-14.41966599 303.63752777 -11.78850396 307.00519796 -7.34765625 309.2890625 C-2.0798532 310.88430402 3.53183444 310.84831718 9 311 C9 311.33 9 311.66 9 312 C6.4803886 312.36599397 3.96006672 312.71800851 1.4375 313.0625 C0.73302734 313.16626953 0.02855469 313.27003906 -0.69726562 313.37695312 C-6.43967277 314.14437159 -11.44324429 313.8522519 -17 312 C-17 311.34 -17 310.68 -17 310 C-17.66 310 -18.32 310 -19 310 C-20.625 308.75 -20.625 308.75 -22 307 C-22 305.68 -22 304.36 -22 303 C-23.32 303 -24.64 303 -26 303 C-26.87747704 299.97360639 -27.12760196 297.27544897 -27.13422108 294.12884998 C-27.13867892 293.14411853 -27.14313676 292.15938707 -27.14772969 291.14481527 C-27.14754533 290.06535829 -27.14736097 288.98590131 -27.14717102 287.87373352 C-27.15084771 286.72510415 -27.1545244 285.57647478 -27.1583125 284.39303845 C-27.16742991 281.20420109 -27.17204696 278.01539398 -27.17470181 274.82654583 C-27.17860911 271.38741262 -27.18818711 267.94829425 -27.19691467 264.50917053 C-27.21666639 256.20371906 -27.22674336 247.89826639 -27.23564246 239.59279731 C-27.24002722 235.68040133 -27.24539352 231.76800671 -27.25063133 227.8556118 C-27.26764183 214.84810447 -27.28213591 201.84059799 -27.28938007 188.83308125 C-27.29128992 185.45846366 -27.29321026 182.08384608 -27.29516602 178.70922852 C-27.29564976 177.87049795 -27.2961335 177.03176738 -27.2966319 176.16762074 C-27.30493191 162.58127435 -27.33026912 148.99501601 -27.36274669 135.40870807 C-27.39582728 121.4562731 -27.41382971 107.50388286 -27.41702431 93.55140847 C-27.41918842 85.71906999 -27.42792249 77.88685994 -27.45348549 70.05455971 C-27.47520611 63.38418987 -27.48323623 56.71397967 -27.47351871 50.04357848 C-27.46897797 46.64188828 -27.47084645 43.24052736 -27.49028015 39.83888245 C-27.50795344 36.14603875 -27.50091408 32.4540288 -27.48774719 28.76118469 C-27.49871644 27.69288132 -27.50968568 26.62457796 -27.52098733 25.52390176 C-27.45128007 17.41847153 -25.65643679 11.44618827 -20.6875 5 C-18 3 -18 3 -11 2 C-11.33 91.43 -11.66 180.86 -12 273 C-10.68 272.67 -9.36 272.34 -8 272 C-5.36 272 -2.72 272 0 272 C0 182.24 0 92.48 0 0 Z " fill="#27533F" transform="translate(167,67)"/>
<path d="M0 0 C0.94842714 -0.0034177 1.89685429 -0.0068354 2.87402165 -0.01035666 C6.04800648 -0.01693862 9.22114329 0.00504627 12.39505005 0.0269165 C14.67176799 0.02804491 16.94848738 0.02741126 19.22520447 0.02514648 C25.40453159 0.02399815 31.58354855 0.04752716 37.76280355 0.07544231 C44.22102381 0.10043588 50.67925105 0.10279637 57.13751221 0.10754395 C67.97683728 0.11856652 78.81603508 0.14355664 89.65530396 0.17926025 C100.81838412 0.21599218 111.98143335 0.24429813 123.14456177 0.2612915 C124.17719122 0.26286784 124.17719122 0.26286784 125.23068188 0.26447603 C128.68437834 0.26969629 132.13807502 0.27475109 135.59177184 0.27972364 C164.23086463 0.32117148 192.86983765 0.3919054 221.50881958 0.48101807 C221.59588244 4.89756061 221.64923336 9.31388263 221.69631958 13.73101807 C221.7214563 14.98527588 221.74659302 16.23953369 221.77249146 17.53179932 C221.78699341 19.33970947 221.78699341 19.33970947 221.80178833 21.18414307 C221.825354 22.84945068 221.825354 22.84945068 221.84939575 24.54840088 C221.44924878 27.99396753 221.23423557 29.29784142 218.50881958 31.48101807 C215.38831081 31.8808269 212.61826225 32.02068946 209.4947052 31.98895264 C208.56124183 31.9951926 207.62777846 32.00143256 206.66602832 32.00786161 C203.5244232 32.02387203 200.38358535 32.01115567 197.24197388 31.99859619 C194.99513291 32.00401383 192.74829549 32.01113447 190.50146484 32.01983643 C184.38771016 32.03811828 178.27422458 32.03098127 172.160465 32.01832008 C165.76907342 32.00821386 159.37770533 32.01757948 152.98631287 32.02386475 C141.55993051 32.03161675 130.13369751 32.01915879 118.7073404 31.9988274 C108.35017166 31.98096864 97.99318232 31.98404888 87.63601685 32.00250244 C75.61060348 32.02391831 63.58532566 32.03187043 51.55988628 32.02005339 C45.19367053 32.013814 38.8275783 32.01299484 32.46137047 32.02619934 C26.47362722 32.03775025 20.48622272 32.02974549 14.49851608 32.00662231 C12.29989879 32.00133052 10.10125301 32.00285699 7.90264702 32.01167297 C4.90267405 32.0225935 1.90378846 32.00890618 -1.09611511 31.98895264 C-2.40337074 32.00233697 -2.40337074 32.00233697 -3.73703557 32.01599169 C-9.13724609 31.94625912 -12.18576251 31.04140677 -16.49118042 27.48101807 C-19.79511265 23.77071984 -21.22266956 19.54453205 -20.94039917 14.53179932 C-19.81382255 9.38873213 -16.96401308 5.70427162 -12.97939873 2.39487076 C-8.45153645 -0.08939503 -5.07500434 -0.06709246 0 0 Z " fill="#E3D6B4" transform="translate(170.49118041992188,345.51898193359375)"/>
<path d="M0 0 C0.93702993 -0.00623996 1.87405986 -0.01247993 2.83948463 -0.01890898 C5.96323152 -0.03479847 9.08619371 -0.02225038 12.20994568 -0.00964355 C14.45590163 -0.01506641 16.70185401 -0.02218999 18.94779968 -0.03088379 C25.03653369 -0.0490993 31.12499619 -0.04205702 37.21373487 -0.02936745 C43.58861342 -0.01923196 49.96346891 -0.02863455 56.33834839 -0.03491211 C67.7275321 -0.04265212 79.11656558 -0.03023225 90.50572389 -0.00987476 C100.82499821 0.00799946 111.14409256 0.00488708 121.46336365 -0.0135498 C133.45879191 -0.03497148 145.4540843 -0.042916 157.44953865 -0.03110075 C163.79503223 -0.02486637 170.14040192 -0.02402893 176.48588753 -0.0372467 C182.45071883 -0.04880407 188.41521028 -0.04078107 194.38000488 -0.01766968 C196.56853102 -0.01238229 198.75708577 -0.01389684 200.94560051 -0.02272034 C203.93400865 -0.0336577 206.92132905 -0.01993343 209.90966797 0 C211.20743844 -0.01338433 211.20743844 -0.01338433 212.53142649 -0.02703905 C218.28242954 0.04732385 221.61901522 1.27715552 226.39134216 4.50793457 C225.40134216 4.83793457 224.41134216 5.16793457 223.39134216 5.50793457 C222.40134216 4.84793457 221.41134216 4.18793457 220.39134216 3.50793457 C217.43108389 3.30597998 214.56387817 3.22276116 211.6026001 3.22946167 C210.6934882 3.22366927 209.7843763 3.21787687 208.84771556 3.21190894 C205.78906144 3.19484865 202.73055766 3.19202725 199.67185974 3.18908691 C197.48424914 3.1797929 195.2966421 3.16962503 193.10903931 3.15864563 C187.15900107 3.13127219 181.20898659 3.11617449 175.25890183 3.1032176 C169.04485732 3.08761913 162.83086158 3.0608185 156.61685181 3.03518677 C146.18337996 2.99366783 135.749904 2.95909001 125.31639099 2.92980957 C114.56930121 2.89963015 103.82223809 2.8652827 93.07518005 2.82531738 C92.41285521 2.82285583 91.75053036 2.82039429 91.06813506 2.81785814 C87.74548289 2.80548366 84.42283104 2.79302263 81.10017931 2.78052974 C53.53060316 2.67712322 25.96099559 2.58789123 -1.60865784 2.50793457 C-1.27865784 3.49793457 -0.94865784 4.48793457 -0.60865784 5.50793457 C-0.52321821 7.02936364 -0.49484566 8.55433789 -0.50122738 10.07815075 C-0.5034659 11.49266058 -0.5034659 11.49266058 -0.50574964 12.93574637 C-0.51255343 13.97367294 -0.51935722 15.01159951 -0.52636719 16.08097839 C-0.52959632 17.18201725 -0.53282544 18.28305611 -0.53615242 19.41745979 C-0.54826521 23.12563111 -0.56763027 26.83372974 -0.58692932 30.54187012 C-0.59706812 33.19252468 -0.60680679 35.84317788 -0.61604309 38.49383545 C-0.63676278 44.21018345 -0.66119059 49.92650602 -0.6881237 55.64282799 C-0.72705931 63.90771033 -0.76042317 72.17260775 -0.79241896 80.43751953 C-0.84447935 93.84618163 -0.90105755 107.25482073 -0.96046448 120.66345215 C-1.01816954 133.69013574 -1.07375458 146.71682553 -1.1264801 159.74353027 C-1.12972982 160.54624391 -1.13297954 161.34895755 -1.13632774 162.17599585 C-1.15261721 166.20289897 -1.16886492 170.22980226 -1.18509185 174.25670564 C-1.31980453 207.67381057 -1.46191902 241.0908803 -1.60865784 274.50793457 C-5.56865784 274.83793457 -9.52865784 275.16793457 -13.60865784 275.50793457 C-13.60865784 186.40793457 -13.60865784 97.30793457 -13.60865784 5.50793457 C-14.92865784 5.17793457 -16.24865784 4.84793457 -17.60865784 4.50793457 C-11.46459661 0.95058205 -7.04192824 -0.07281344 0 0 Z " fill="#3A6B53" transform="translate(168.60865783691406,64.4920654296875)"/>
<path d="M0 0 C0.33 0 0.66 0 1 0 C1.09154528 37.58947419 1.16203351 75.1789316 1.20426132 112.7684947 C1.20926418 117.20577074 1.21444146 121.64304656 1.21972656 126.08032227 C1.2207758 126.96370807 1.22182505 127.84709386 1.22290608 128.75724893 C1.24031373 143.06297715 1.27185341 157.36864111 1.30861118 171.6743312 C1.34601058 186.35209206 1.36823373 201.02981925 1.37635398 215.70762581 C1.38184383 224.76544146 1.3991862 233.82307548 1.43166587 242.88083523 C1.45280139 249.09115988 1.45920223 255.30139055 1.45400551 261.51174856 C1.45144221 265.09543692 1.45538553 268.67880775 1.4768219 272.26243973 C1.49989872 276.14871525 1.49195261 280.03457711 1.48101807 283.9209137 C1.49266943 285.0522445 1.5043208 286.18357531 1.51632524 287.34918886 C1.46715674 293.80083773 0.85772262 297.75971163 -3 303 C-8.42489872 308.02795491 -12.87332862 308.14630058 -20.00065613 308.13371277 C-20.93270837 308.13597833 -21.86476061 308.13824388 -22.82505685 308.14057809 C-25.96175282 308.14693003 -29.09840571 308.14608795 -32.23510742 308.14526367 C-34.4786993 308.14825448 -36.72229067 308.15165682 -38.96588135 308.15544128 C-45.07142078 308.16429496 -51.17694621 308.16662001 -57.28249145 308.16725707 C-62.37681232 308.16820542 -67.47112992 308.17188299 -72.56544954 308.17542917 C-83.89861397 308.18311357 -95.23176972 308.18609732 -106.56493589 308.18542381 C-107.24515988 308.18538386 -107.92538387 308.1853439 -108.6262207 308.18530273 C-109.3072765 308.18526185 -109.98833229 308.18522097 -110.69002614 308.18517885 C-121.71957298 308.18477269 -132.74908563 308.19433413 -143.77862259 308.2084411 C-155.10600404 308.22281451 -166.43336364 308.22952769 -177.76075631 308.22884732 C-184.11918276 308.22859229 -190.47757055 308.23144632 -196.835989 308.24202538 C-202.81871302 308.2517069 -208.80136145 308.25178509 -214.78408813 308.24450874 C-216.97864708 308.24346287 -219.17321074 308.24582594 -221.36776161 308.2518692 C-224.36673843 308.25959186 -227.36545442 308.25494231 -230.36442566 308.24723816 C-231.23010373 308.25238172 -232.0957818 308.25752529 -232.98769253 308.26282471 C-238.31299477 308.23265632 -242.88037386 307.48347472 -248 306 C-248 305.34 -248 304.68 -248 304 C-248.556875 303.938125 -249.11375 303.87625 -249.6875 303.8125 C-253.66210534 302.41601704 -256.13560208 299.39950139 -258.3125 295.875 C-259 294 -259 294 -259 291 C-258.01 291 -257.02 291 -256 291 C-256 292.32 -256 293.64 -256 295 C-255.01 295.33 -254.02 295.66 -253 296 C-253 296.66 -253 297.32 -253 298 C-252.34 298 -251.68 298 -251 298 C-251 298.66 -251 299.32 -251 300 C-243.45952096 301.07859862 -243.45952096 301.07859862 -236 300 C-236.99 299.34 -237.98 298.68 -239 298 C-237.83286815 297.99761165 -236.66573629 297.99522329 -235.46323681 297.99276257 C-207.7747091 297.93543622 -180.08625669 297.86272963 -152.39782063 297.77101372 C-148.991858 297.75974519 -145.58589496 297.7486068 -142.17993164 297.73754883 C-141.50184902 297.73534514 -140.8237664 297.73314146 -140.12513582 297.730871 C-129.13731275 297.69547249 -118.14948976 297.6706228 -107.16163077 297.64965298 C-95.89195829 297.62791122 -84.62235985 297.59465272 -73.35274631 297.55129844 C-67.02070648 297.52730615 -60.68874895 297.5086168 -54.35666466 297.50238609 C-48.40183048 297.49636235 -42.44720706 297.4764612 -36.49245071 297.44572449 C-34.30226031 297.43690061 -32.11204242 297.4332306 -29.92183495 297.43499184 C-26.94049694 297.43663289 -23.95981041 297.42004556 -20.9785614 297.39872742 C-20.10405466 297.40357499 -19.22954792 297.40842257 -18.32854098 297.41341704 C-13.94007092 297.51543408 -13.94007092 297.51543408 -10.25535709 295.47595245 C-9.84108925 294.98888814 -9.42682141 294.50182383 -9 294 C-9 294.66 -9 295.32 -9 296 C-6.46887453 295.49768658 -6.46887453 295.49768658 -4 294 C-2.95582091 290.91234313 -2.95582091 290.91234313 -2.6875 287.375 C-2.54699219 286.18648438 -2.40648437 284.99796875 -2.26171875 283.7734375 C-2.13216797 282.40058594 -2.13216797 282.40058594 -2 281 C-1.34 281 -0.68 281 0 281 C0 188.27 0 95.54 0 0 Z " fill="#517964" transform="translate(401,79)"/>
<path d="M0 0 C0.94842714 -0.0034177 1.89685429 -0.0068354 2.87402165 -0.01035666 C6.04800648 -0.01693862 9.22114329 0.00504627 12.39505005 0.0269165 C14.67176799 0.02804491 16.94848738 0.02741126 19.22520447 0.02514648 C25.40453159 0.02399815 31.58354855 0.04752716 37.76280355 0.07544231 C44.22102381 0.10043588 50.67925105 0.10279637 57.13751221 0.10754395 C67.97683728 0.11856652 78.81603508 0.14355664 89.65530396 0.17926025 C100.81838412 0.21599218 111.98143335 0.24429813 123.14456177 0.2612915 C124.17719122 0.26286784 124.17719122 0.26286784 125.23068188 0.26447603 C128.68437834 0.26969629 132.13807502 0.27475109 135.59177184 0.27972364 C164.23086463 0.32117148 192.86983765 0.3919054 221.50881958 0.48101807 C221.59572211 4.91839519 221.64917884 9.35555441 221.69631958 13.79351807 C221.7214563 15.05615479 221.74659302 16.3187915 221.77249146 17.61968994 C221.78699341 19.43243408 221.78699341 19.43243408 221.80178833 21.28179932 C221.825354 22.95496216 221.825354 22.95496216 221.84939575 24.66192627 C221.50881958 27.48101807 221.50881958 27.48101807 219.99050903 29.36846924 C219.25707275 29.91918091 219.25707275 29.91918091 218.50881958 30.48101807 C216.08440671 23.20777945 218.12596452 15.13811933 218.50881958 7.48101807 C142.93881958 7.48101807 67.36881958 7.48101807 -10.49118042 7.48101807 C-10.49118042 8.14101807 -10.49118042 8.80101807 -10.49118042 9.48101807 C-13.45305314 11.65305806 -15.99804033 13.31663804 -19.49118042 14.48101807 C-19.49118042 16.46101807 -19.49118042 18.44101807 -19.49118042 20.48101807 C-19.82118042 20.48101807 -20.15118042 20.48101807 -20.49118042 20.48101807 C-21.0162472 14.60027017 -20.3200868 11.32151052 -17.17086792 6.34039307 C-11.96991606 0.58306031 -7.32510391 -0.09683918 0 0 Z " fill="#BDB58D" transform="translate(170.49118041992188,345.51898193359375)"/>
<path d="M0 0 C0.66 0 1.32 0 2 0 C2.1356886 2.87659826 2.23440753 5.74673463 2.3125 8.625 C2.35439453 9.43324219 2.39628906 10.24148438 2.43945312 11.07421875 C2.52834262 15.44758213 2.34351227 18.15028528 -0.51953125 21.5859375 C-1.33808594 22.38257813 -2.15664063 23.17921875 -3 24 C-3.33 22.68 -3.66 21.36 -4 20 C-2.68 19.34 -1.36 18.68 0 18 C-0.185625 16.88625 -0.37125 15.7725 -0.5625 14.625 C-1.20322807 9.65935745 -0.65791037 4.93938863 0 0 Z " fill="#3A5E4F" transform="translate(399,360)"/>
<path d="M0 0 C0.83789062 0.48082031 1.67578125 0.96164062 2.5390625 1.45703125 C6.34741638 3.15488654 9.22826558 3.49189932 13.375 3.6875 C15.24285156 3.78611328 15.24285156 3.78611328 17.1484375 3.88671875 C18.08945313 3.92410156 19.03046875 3.96148437 20 4 C20 4.33 20 4.66 20 5 C17.43795456 5.33719047 14.87545682 5.66987153 12.3125 6 C11.59126953 6.09539062 10.87003906 6.19078125 10.12695312 6.2890625 C6.39007129 6.76683735 2.77708469 7.11919794 -1 7 C-1.33 5.68 -1.66 4.36 -2 3 C-1.34 3 -0.68 3 0 3 C0 2.01 0 1.02 0 0 Z " fill="#29533A" transform="translate(156,374)"/>
<path d="M0 0 C1.32 0.33 2.64 0.66 4 1 C4 1.66 4 2.32 4 3 C4.66 3.33 5.32 3.66 6 4 C0.375 7.875 0.375 7.875 -3 9 C-3 10.98 -3 12.96 -3 15 C-3.33 15 -3.66 15 -4 15 C-4.45356243 8.53673535 -3.59378942 5.39068413 0 0 Z " fill="#B8B68E" transform="translate(154,351)"/>
<path d="M0 0 C0.66 0.33 1.32 0.66 2 1 C1.34 3.31 0.68 5.62 0 8 C-0.66 8 -1.32 8 -2 8 C-2 8.66 -2 9.32 -2 10 C-3.375 11.625 -3.375 11.625 -5 13 C-5.66 13 -6.32 13 -7 13 C-7.56731129 8.177854 -5.92073127 5.75522591 -3 2 C-2.01 1.34 -1.02 0.68 0 0 Z " fill="#59776A" transform="translate(149,70)"/>
<path d="M0 0 C0.99 0 1.98 0 3 0 C3 1.32 3 2.64 3 4 C3.99 4.33 4.98 4.66 6 5 C6.36548445 6.32488113 6.6937566 7.66018514 7 9 C8.48800372 11.2072358 8.48800372 11.2072358 10 13 C5.86618312 11.2283642 3.08641496 8.79258468 0.75 4.9375 C0 3 0 3 0 0 Z " fill="#849C93" transform="translate(142,370)"/>
<path d="M0 0 C0.66 0 1.32 0 2 0 C2.66 0.99 3.32 1.98 4 3 C4.66 3.33 5.32 3.66 6 4 C7.125 6.0625 7.125 6.0625 8 8 C7.34 8.66 6.68 9.32 6 10 C2.46413986 6.82679218 0.41421969 4.83256305 0 0 Z " fill="#D2CFB5" transform="translate(151,365)"/>
<path d="M0 0 C0.144375 0.61875 0.28875 1.2375 0.4375 1.875 C0.93152225 4.03258322 0.93152225 4.03258322 2 6 C0.625 7.5 0.625 7.5 -1 9 C-1.66 9 -2.32 9 -3 9 C-3.26218749 5.85375007 -3.24754367 4.38162983 -1.5 1.6875 C-1.005 1.130625 -0.51 0.57375 0 0 Z " fill="#6B8679" transform="translate(145,74)"/>
<path d="M0 0 C0.66 0 1.32 0 2 0 C1.52797514 4.24822374 -0.96655518 6.19989709 -4 9 C-4 7.35 -4 5.7 -4 4 C-2.68 3.67 -1.36 3.34 0 3 C0 2.01 0 1.02 0 0 Z " fill="#8AA294" transform="translate(399,375)"/>
<path d="M0 0 C1.32 0.33 2.64 0.66 4 1 C3.236875 1.7425 2.47375 2.485 1.6875 3.25 C-0.4393702 5.4263323 -2.2559956 7.52167796 -4 10 C-3.5205537 5.78087253 -2.83374881 3.20336822 0 0 Z " fill="#365036" transform="translate(154,348)"/>
<path d="M0 0 C1.32 0.66 2.64 1.32 4 2 C2.02 2.99 2.02 2.99 0 4 C0 5.98 0 7.96 0 10 C-0.33 10 -0.66 10 -1 10 C-1.125 2.25 -1.125 2.25 0 0 Z " fill="#A4A98B" transform="translate(151,356)"/>
</svg>
