<?xml version="1.0" encoding="UTF-8"?>
<svg version="1.1" xmlns="http://www.w3.org/2000/svg" width="507" height="493">
<path d="M0 0 C1.56624879 -0.00913666 1.56624879 -0.00913666 3.16413897 -0.01845789 C6.6624083 -0.03510464 10.1603143 -0.03030953 13.65861511 -0.0255127 C16.16703673 -0.03285207 18.67545496 -0.04143791 21.18386841 -0.05117798 C27.29020101 -0.07110749 33.39639996 -0.07677374 39.50276069 -0.07499009 C44.46775069 -0.07368153 49.43271111 -0.07749143 54.39769554 -0.08491516 C55.82887019 -0.08701441 57.26004485 -0.08911201 58.69121951 -0.09120798 C59.75979555 -0.09277327 59.75979555 -0.09277327 60.84995898 -0.09437019 C74.31868599 -0.11326644 87.78735851 -0.1122244 101.25609329 -0.10540086 C113.56845026 -0.09982719 125.88059904 -0.12064431 138.19290737 -0.15376133 C150.84364753 -0.18752374 163.49428803 -0.2026634 176.14507407 -0.1980443 C183.24410963 -0.195802 190.34295284 -0.20100732 197.44194984 -0.22593689 C204.11922596 -0.24918627 210.79599844 -0.2463364 217.47330666 -0.22600937 C219.92223446 -0.22259698 222.37119135 -0.22769812 224.8200798 -0.24199295 C228.16709781 -0.26018023 231.51264527 -0.24743816 234.85961914 -0.22705078 C235.82539361 -0.23956863 236.79116809 -0.25208648 237.78620845 -0.26498365 C244.3930177 -0.17889278 249.32144543 1.34647708 254.62028503 5.39440918 C260.99089474 12.77468122 259.76562368 23.16313299 259.7539978 32.26832581 C259.75626336 33.56864304 259.75852892 34.86896026 259.76086313 36.20868105 C259.76696571 39.80698879 259.76684936 43.40527325 259.76566875 47.00358498 C259.76546436 50.88841554 259.77098702 54.7732387 259.77572632 58.6580658 C259.78402413 66.26384524 259.78678073 73.86961693 259.7873387 81.47540051 C259.78781411 87.65653377 259.78987012 93.83766447 259.79303932 100.01879692 C259.80184223 117.54438123 259.80645907 135.06995942 259.80570885 152.59554596 C259.80564891 154.0120416 259.80564891 154.0120416 259.80558777 155.45715332 C259.80554689 156.40263644 259.80550601 157.34811957 259.80546389 158.3222537 C259.80505715 173.65636657 259.81463466 188.99045493 259.82872614 204.32456071 C259.84308187 220.07040583 259.84999681 235.81623898 259.84913236 251.56209081 C259.84880019 260.40196515 259.85155611 269.24181376 259.86231041 278.08168221 C259.87140468 285.60512854 259.87359938 293.12853746 259.86680099 300.6519869 C259.86353082 304.49068517 259.86349705 308.3293116 259.87215424 312.16800308 C259.88143945 316.32788211 259.8752565 320.48759405 259.86752319 324.6474762 C259.87266676 325.86254587 259.87781032 327.07761554 259.88310975 328.3295055 C259.87851095 329.4448547 259.87391216 330.56020389 259.869174 331.70935154 C259.86950006 333.14925507 259.86950006 333.14925507 259.86983269 334.61824757 C259.36360423 340.2499254 257.48596513 344.28712408 253.62028503 348.39440918 C252.96028503 348.39440918 252.30028503 348.39440918 251.62028503 348.39440918 C251.62028503 349.05440918 251.62028503 349.71440918 251.62028503 350.39440918 C246.70950119 352.98236483 241.90345248 352.67346091 236.4992218 352.64837646 C235.47083344 352.65149645 234.44244509 352.65461643 233.38289344 352.65783095 C229.93218075 352.66581696 226.48164361 352.65948482 223.03092957 352.65319824 C220.55882158 352.65590786 218.08671441 352.65946863 215.61460876 352.66381836 C209.59371207 352.67200031 203.57288442 352.67079012 197.5519904 352.66499308 C192.65752369 352.6604758 187.76307095 352.65986397 182.86860275 352.66204071 C181.82356397 352.66250041 181.82356397 352.66250041 180.75741329 352.6629694 C179.34205708 352.66360885 177.92670086 352.66425728 176.51134466 352.66491458 C163.23821365 352.67061812 149.96511028 352.66406004 136.6919838 352.65331385 C125.30788157 352.64438224 113.92382013 352.6459271 102.53971863 352.65515137 C89.31709143 352.66586035 76.09448846 352.67006466 62.87185752 352.66392684 C61.46110464 352.66328975 60.05035174 352.66266101 58.63959885 352.66204071 C57.59845505 352.66157788 57.59845505 352.66157788 56.53627805 352.66110571 C51.64982667 352.65938036 46.76339068 352.66229051 41.87694168 352.66699982 C35.29585022 352.67320292 28.7148238 352.66877054 22.13373566 352.6572113 C19.71783705 352.65456619 17.30193195 352.65532727 14.88603592 352.65973663 C11.58904153 352.66519937 8.2922942 352.65834877 4.99531555 352.64837646 C4.03859707 352.65283791 3.08187859 352.65729935 2.09616864 352.66189599 C-6.58255665 352.6109616 -13.57897203 351.20686124 -19.98127747 344.78894043 C-29.59884658 334.0580074 -28.53494877 321.6203198 -28.50669861 307.86436462 C-28.5082586 306.67341015 -28.50981859 305.48245568 -28.51142585 304.25541168 C-28.5146957 300.99007968 -28.51355786 297.72478564 -28.51043963 294.45945466 C-28.50815937 290.92226798 -28.5116781 287.38508609 -28.51441956 283.84790039 C-28.51884817 276.93475765 -28.51791381 270.02162581 -28.51500691 263.10848265 C-28.5127416 257.4867553 -28.51244524 251.86503098 -28.51353073 246.2433033 C-28.51368396 245.44089922 -28.5138372 244.63849514 -28.51399507 243.81177579 C-28.51431482 242.18133751 -28.51463904 240.55089923 -28.51496767 238.92046095 C-28.51781389 223.65993833 -28.5145488 208.39942174 -28.5091673 193.13890011 C-28.50469918 180.06399192 -28.50547692 166.9890926 -28.51008606 153.91418457 C-28.5154455 138.7039038 -28.51754018 123.4936283 -28.5144738 108.28334671 C-28.51415527 106.65946424 -28.5138409 105.03558177 -28.51353073 103.4116993 C-28.51337646 102.61286659 -28.51322218 101.81403389 -28.51306323 100.99099414 C-28.51220225 95.3799398 -28.5136519 89.76888882 -28.51601028 84.15783501 C-28.51882366 77.31433405 -28.51803763 70.47084455 -28.51272954 63.6273449 C-28.51011337 60.14027769 -28.5090519 56.65322954 -28.51237869 53.16616249 C-28.5151231 49.37657952 -28.51166896 45.5870497 -28.50669861 41.79747009 C-28.50892933 40.70902579 -28.51116005 39.62058149 -28.51345837 38.49915403 C-28.45370714 14.90925563 -28.45370714 14.90925563 -20.92658997 6.83581543 C-14.29551859 0.95510213 -8.50835102 -0.04661534 0 0 Z " fill="#0287D0" transform="translate(135.3797149658203,70.6055908203125)"/>
<path d="M0 0 C2.97 0 5.94 0 9 0 C8.67 98.34 8.34 196.68 8 298 C89.84 297.67 171.68 297.34 256 297 C256 304.92 256 312.84 256 321 C255.34 321.33 254.68 321.66 254 322 C253.53348793 324.12576782 253.53348793 324.12576782 253.375 326.5625 C253.30023438 327.38878906 253.22546875 328.21507812 253.1484375 329.06640625 C253.09945313 329.70449219 253.05046875 330.34257812 253 331 C252.34 331 251.68 331 251 331 C250.87625 331.61875 250.7525 332.2375 250.625 332.875 C250 335 250 335 248 337 C247.01 337 246.02 337 245 337 C245.33 326.77 245.66 316.54 246 306 C213.88837591 306.03711633 181.7768736 306.09292494 149.66534292 306.17792095 C145.87398226 306.18793837 142.08262116 306.1977825 138.29125977 306.20751953 C137.15907572 306.21043159 137.15907572 306.21043159 136.00401927 306.21340248 C123.78378435 306.24442062 111.56356821 306.26140261 99.34330135 306.27319422 C86.80346636 306.28560675 74.26372991 306.31311043 61.72395712 306.35461307 C53.98668699 306.37974562 46.24958026 306.39311746 38.51226873 306.39142957 C32.57853322 306.39139629 26.64498834 306.41236312 20.71131897 306.44116783 C18.27769961 306.44969316 15.84404542 306.451399 13.41041756 306.44580269 C10.08879283 306.43918125 6.76816442 306.45704047 3.44664001 306.48101807 C2.48261999 306.47325765 1.51859996 306.46549723 0.5253672 306.45750165 C-5.50223762 306.53457799 -9.07804287 307.45079631 -14 311 C-17.67984192 315.71774605 -18.7082311 319.52322846 -18.453125 325.5 C-17.69244114 329.69687645 -15.82015835 332.83684942 -13 336 C-10.3473782 337.84475674 -10.3473782 337.84475674 -8 339 C-8 339.66 -8 340.32 -8 341 C-7.34 341 -6.68 341 -6 341 C-6 341.66 -6 342.32 -6 343 C-7.79158489 343.02696365 -9.58328473 343.04637917 -11.375 343.0625 C-12.37273437 343.07410156 -13.37046875 343.08570313 -14.3984375 343.09765625 C-17 343 -17 343 -19 342 C-19 341.34 -19 340.68 -19 340 C-19.928125 339.896875 -20.85625 339.79375 -21.8125 339.6875 C-25.11257297 338.97571955 -26.04720228 338.63627692 -28 336 C-32.8411708 327.93165357 -31.14574064 315.60336733 -31.12698364 306.46995544 C-31.12854363 305.27900097 -31.13010362 304.0880465 -31.13171089 302.8610025 C-31.13498074 299.5956705 -31.13384289 296.33037646 -31.13072467 293.06504548 C-31.12844441 289.5278588 -31.13196314 285.99067691 -31.13470459 282.45349121 C-31.13913321 275.54034847 -31.13819884 268.62721663 -31.13529195 261.71407347 C-31.13302663 256.09234612 -31.13273027 250.4706218 -31.13381577 244.84889412 C-31.133969 244.04649004 -31.13412223 243.24408596 -31.13428011 242.41736661 C-31.13459986 240.78692833 -31.13492407 239.15649005 -31.1352527 237.52605177 C-31.13809892 222.26552915 -31.13483384 207.00501256 -31.12945233 191.74449093 C-31.12498422 178.66958274 -31.12576195 165.59468342 -31.13037109 152.51977539 C-31.13573054 137.30949462 -31.13782521 122.09921912 -31.13475883 106.88893753 C-31.1344403 105.26505506 -31.13412593 103.64117259 -31.13381577 102.01729012 C-31.13366149 101.21845741 -31.13350721 100.41962471 -31.13334826 99.59658496 C-31.13248728 93.98553062 -31.13393693 88.37447964 -31.13629532 82.76342583 C-31.1391087 75.91992487 -31.13832266 69.07643537 -31.13301457 62.23293572 C-31.13039841 58.74586851 -31.12933694 55.25882036 -31.13266373 51.77175331 C-31.13540813 47.98217034 -31.13195399 44.19264052 -31.12698364 40.40306091 C-31.12921436 39.31461661 -31.13144509 38.22617231 -31.13374341 37.10474485 C-31.07516762 13.97891156 -31.07516762 13.97891156 -23.58203125 5.37109375 C-20.02397008 2.02289142 -16.7786555 1.28671933 -12 1 C-12.33 1.66 -12.66 2.32 -13 3 C-13.66 3 -14.32 3 -15 3 C-14.67 3.99 -14.34 4.98 -14 6 C-13.90914711 7.65156173 -13.87624802 9.30659183 -13.87695217 10.96065044 C-13.87496112 11.99074189 -13.87297007 13.02083333 -13.87091869 14.08213967 C-13.87383153 15.21733995 -13.87674437 16.35254022 -13.87974548 17.5221405 C-13.87889106 18.72526817 -13.87803663 19.92839584 -13.87715632 21.16798192 C-13.87579107 24.51328828 -13.87892746 27.8585365 -13.88393438 31.20383584 C-13.88824412 34.80913377 -13.88679208 38.41442984 -13.8860321 42.01972961 C-13.8855072 48.26808792 -13.88865049 54.5164358 -13.89426994 60.76479149 C-13.9023895 69.79891651 -13.90500063 78.83303649 -13.90625793 87.86716477 C-13.90844773 102.52366935 -13.91510588 117.18016836 -13.92456055 131.83666992 C-13.93373652 146.07592745 -13.94081645 160.31518347 -13.94506836 174.55444336 C-13.94546244 175.87052615 -13.94546244 175.87052615 -13.94586449 177.21319648 C-13.94716951 181.61470151 -13.94843322 186.01620656 -13.94967639 190.41771162 C-13.96004677 226.945145 -13.97766314 263.47257207 -14 300 C-12.68 299.34 -11.36 298.68 -10 298 C-6.7 298 -3.4 298 0 298 C0 199.66 0 101.32 0 0 Z " fill="#03579A" transform="translate(138,72)"/>
<path d="M0 0 C1.03911972 -0.0034177 2.07823944 -0.0068354 3.14884764 -0.01035666 C6.62372988 -0.01693466 10.09783625 0.00504016 13.57264709 0.0269165 C16.06625856 0.02804499 18.55987136 0.02741109 21.05348206 0.02514648 C26.41843542 0.0242362 31.78314821 0.03556654 37.14803886 0.05809784 C44.90465765 0.09065258 52.66118243 0.10102839 60.41786212 0.10604981 C73.00352747 0.11479703 85.58908892 0.14139701 98.17469788 0.17926025 C110.39799989 0.2159952 122.62127365 0.24429968 134.84461975 0.2612915 C135.59849057 0.2623424 136.35236138 0.26339329 137.12907677 0.26447603 C140.91115218 0.26969631 144.69322779 0.27475111 148.47530353 0.27972364 C179.83473123 0.32116784 211.1940298 0.39189866 242.55335999 0.48101807 C242.6405563 5.04339738 242.6938192 9.60556193 242.74085999 14.16851807 C242.77856506 16.10887939 242.77856506 16.10887939 242.81703186 18.08843994 C242.82669983 19.33560791 242.8363678 20.58277588 242.84632874 21.86773682 C242.86203918 23.01459961 242.87774963 24.1614624 242.89393616 25.34307861 C242.51304774 28.85243979 241.70874759 30.70584224 239.55335999 33.48101807 C236.80417145 34.39741425 235.19237749 34.60769314 232.36189651 34.61244583 C231.07403917 34.61820755 231.07403917 34.61820755 229.7601645 34.62408566 C228.81650458 34.62321918 227.87284466 34.6223527 226.90058899 34.62145996 C225.89841079 34.62443108 224.8962326 34.62740221 223.86368537 34.63046336 C220.48972741 34.63916756 217.11580486 34.64066007 213.74183655 34.64215088 C211.32913639 34.64677784 208.91643697 34.65180234 206.5037384 34.65719604 C199.93754059 34.67033396 193.37135015 34.67680434 186.8051424 34.6812067 C182.70493503 34.6839692 178.60473001 34.68820659 174.50452423 34.69271088 C163.15181756 34.70490409 151.79911277 34.71520302 140.44639969 34.71858597 C139.35640058 34.71891532 139.35640058 34.71891532 138.24438129 34.71925132 C137.5159766 34.7194696 136.78757191 34.71968788 136.03709435 34.71991277 C134.56107092 34.72035623 133.08504748 34.7208028 131.60902405 34.72125244 C130.51078621 34.72158459 130.51078621 34.72158459 129.39036176 34.72192344 C117.52917699 34.72587068 105.66805369 34.7433222 93.80689266 34.76661196 C81.62861779 34.7903313 69.45037376 34.8027881 57.27207541 34.80395389 C50.43467344 34.80487037 43.59735153 34.81061576 36.75997162 34.8287735 C30.32827936 34.84579365 23.89669852 34.84742271 17.46498871 34.83863449 C15.1039133 34.83786267 12.74282982 34.8422259 10.3817749 34.85209274 C7.15902318 34.86477103 3.93681333 34.85895745 0.71406555 34.84851074 C-0.68804 34.86059535 -0.68804 34.86059535 -2.11847091 34.87292409 C-8.44172208 34.82497344 -13.67839447 34.13008278 -18.44273376 29.57086182 C-21.70612868 24.69787916 -23.36814304 20.83815321 -22.96226501 14.90679932 C-21.75646169 9.23404277 -19.19084828 5.70847005 -14.48847103 2.39926529 C-9.77384476 -0.22028802 -5.28575771 -0.06388487 0 0 Z " fill="#E3D6B6" transform="translate(141.44664001464844,377.51898193359375)"/>
<path d="M0 0 C2.97 0 5.94 0 9 0 C8.67 98.34 8.34 196.68 8 298 C89.84 297.67 171.68 297.34 256 297 C256 304.92 256 312.84 256 321 C255.34 321.33 254.68 321.66 254 322 C253.53348793 324.12576782 253.53348793 324.12576782 253.375 326.5625 C253.30023438 327.38878906 253.22546875 328.21507812 253.1484375 329.06640625 C253.09945313 329.70449219 253.05046875 330.34257812 253 331 C252.34 331 251.68 331 251 331 C250.87625 331.61875 250.7525 332.2375 250.625 332.875 C250 335 250 335 248 337 C247.01 337 246.02 337 245 337 C245 326.11 245 315.22 245 304 C243.02 304.33 241.04 304.66 239 305 C237.45928264 305.08171317 235.91587025 305.12382471 234.37298775 305.12304783 C233.49367596 305.12503888 232.61436417 305.12702993 231.70840657 305.12908131 C230.75703749 305.12616847 229.80566841 305.12325563 228.82546997 305.12025452 C227.80353888 305.12110894 226.7816078 305.12196337 225.7287091 305.12284368 C222.30626347 305.12449009 218.8838669 305.11899081 215.46142578 305.11352539 C213.00737001 305.11324331 210.55331415 305.11340166 208.09925842 305.1139679 C202.81677749 305.11419558 197.53431182 305.11136011 192.25183487 305.10573006 C184.61430678 305.09759531 176.97678465 305.09499781 169.3392527 305.09374207 C156.94719372 305.09155465 144.55514134 305.08490298 132.16308594 305.07543945 C120.12695346 305.06625731 108.09082277 305.0591804 96.0546875 305.05493164 C95.31250194 305.05466892 94.57031638 305.05440619 93.80564035 305.05413551 C90.08223043 305.05283045 86.35882049 305.05156675 82.63541055 305.05032361 C51.75693557 305.03996067 20.87846879 305.02227634 -10 305 C-10 305.66 -10 306.32 -10 307 C-10.99 306.67 -11.98 306.34 -13 306 C-12.505 304.02 -12.505 304.02 -12 302 C-13.65 302 -15.3 302 -17 302 C-16.34 301.67 -15.68 301.34 -15 301 C-15 203.65 -15 106.3 -15 6 C-14.67 6 -14.34 6 -14 6 C-14 103.02 -14 200.04 -14 300 C-12.68 299.34 -11.36 298.68 -10 298 C-6.7 298 -3.4 298 0 298 C0 199.66 0 101.32 0 0 Z " fill="#01599E" transform="translate(138,72)"/>
<path d="M0 0 C0.33 0 0.66 0 1 0 C1.04576257 40.40918421 1.08101165 80.81836504 1.10213066 121.22756997 C1.10463212 125.99660268 1.10722076 130.76563534 1.10986328 135.53466797 C1.11065021 136.95883042 1.11065021 136.95883042 1.11145304 138.41176383 C1.12015925 153.79158481 1.13593042 169.17139085 1.15430559 184.55120297 C1.17299862 200.32846414 1.18411546 216.10571749 1.18817699 231.88298929 C1.19092329 241.62096172 1.19960203 251.35889195 1.21583293 261.09685139 C1.22639244 267.77156741 1.22960297 274.44626157 1.22700275 281.12098534 C1.22571985 284.97381457 1.22770753 288.82656999 1.23841095 292.67938614 C1.24992643 296.8549603 1.24598228 301.03037674 1.24050903 305.20596313 C1.24924756 307.0357299 1.24924756 307.0357299 1.25816262 308.90246165 C1.25418052 310.02212773 1.25019842 311.14179382 1.24609566 312.29538918 C1.2468551 313.25911937 1.24761454 314.22284957 1.24839699 315.21578372 C0.74558358 320.85168641 -1.13165404 324.88988242 -5 329 C-5.66 329 -6.32 329 -7 329 C-7 329.66 -7 330.32 -7 331 C-11.91078385 333.58795565 -16.71683256 333.27905173 -22.12106323 333.25396729 C-23.14945159 333.25708727 -24.17783995 333.26020725 -25.23739159 333.26342177 C-28.68810428 333.27140778 -32.13864142 333.26507565 -35.58935547 333.25878906 C-38.06146345 333.26149868 -40.53357063 333.26505945 -43.00567627 333.26940918 C-49.02657297 333.27759113 -55.04740061 333.27638094 -61.06829463 333.2705839 C-65.96276134 333.26606662 -70.85721408 333.26545479 -75.75168228 333.26763153 C-76.79672107 333.26809123 -76.79672107 333.26809123 -77.86287174 333.26856022 C-79.27822796 333.26919967 -80.69358417 333.2698481 -82.10894038 333.2705054 C-95.38207138 333.27620894 -108.65517476 333.26965086 -121.92830123 333.25890467 C-133.31240347 333.24997306 -144.69646491 333.25151792 -156.08056641 333.26074219 C-169.30319361 333.27145117 -182.52579658 333.27565548 -195.74842751 333.26951766 C-197.1591804 333.26888057 -198.56993329 333.26825183 -199.98068619 333.26763153 C-201.02182998 333.2671687 -201.02182998 333.2671687 -202.08400699 333.26669653 C-206.97045837 333.26497118 -211.85689436 333.26788133 -216.74334335 333.27259064 C-223.32443482 333.27879374 -229.90546123 333.27436136 -236.48654938 333.26280212 C-238.90244799 333.26015701 -241.31835308 333.26091809 -243.73424911 333.26532745 C-247.03124351 333.27079019 -250.32799084 333.26393959 -253.62496948 333.25396729 C-254.58168796 333.25842873 -255.53840645 333.26289017 -256.5241164 333.26748681 C-266.1652654 333.21090407 -272.71607421 331.09766814 -279.875 324.25 C-280.926875 323.13625 -280.926875 323.13625 -282 322 C-281.67 321.34 -281.34 320.68 -281 320 C-279.02 320.66 -277.04 321.32 -275 322 C-275 322.66 -275 323.32 -275 324 C-270.71 324.33 -266.42 324.66 -262 325 C-262 324.34 -262 323.68 -262 323 C-262.66 323 -263.32 323 -264 323 C-264 322.34 -264 321.68 -264 321 C-181.17 321 -98.34 321 -13 321 C-12.67 320.01 -12.34 319.02 -12 318 C-11.21625 317.9175 -10.4325 317.835 -9.625 317.75 C-6.85250896 317.27193661 -6.85250896 317.27193661 -5.6875 314.9375 C-5.460625 314.298125 -5.23375 313.65875 -5 313 C-4.34 313 -3.68 313 -3 313 C-3 310.03 -3 307.06 -3 304 C-2.01 303.67 -1.02 303.34 0 303 C0 203.01 0 103.02 0 0 Z " fill="#1C91D0" transform="translate(394,90)"/>
<path d="M0 0 C1.03911972 -0.0034177 2.07823944 -0.0068354 3.14884764 -0.01035666 C6.62372988 -0.01693466 10.09783625 0.00504016 13.57264709 0.0269165 C16.06625856 0.02804499 18.55987136 0.02741109 21.05348206 0.02514648 C26.41843542 0.0242362 31.78314821 0.03556654 37.14803886 0.05809784 C44.90465765 0.09065258 52.66118243 0.10102839 60.41786212 0.10604981 C73.00352747 0.11479703 85.58908892 0.14139701 98.17469788 0.17926025 C110.39799989 0.2159952 122.62127365 0.24429968 134.84461975 0.2612915 C135.59849057 0.2623424 136.35236138 0.26339329 137.12907677 0.26447603 C140.91115218 0.26969631 144.69322779 0.27475111 148.47530353 0.27972364 C179.83473123 0.32116784 211.1940298 0.39189866 242.55335999 0.48101807 C242.66961934 5.04330348 242.74063406 9.60520734 242.80335999 14.16851807 C242.83687561 15.46209229 242.87039124 16.7556665 242.90492249 18.08843994 C242.91781311 19.33560791 242.93070374 20.58277588 242.94398499 21.86773682 C242.96493225 23.01459961 242.98587952 24.1614624 243.00746155 25.34307861 C242.46260835 29.10813138 241.13514991 30.7540583 238.55335999 33.48101807 C237.52515496 30.396403 237.5075315 28.58416568 237.67445374 25.37554932 C237.72279358 24.39263916 237.77113342 23.409729 237.82093811 22.39703369 C237.87701233 21.37287354 237.93308655 20.34871338 237.99085999 19.29351807 C238.04306702 18.25775635 238.09527405 17.22199463 238.14906311 16.15484619 C238.27874392 13.59659758 238.41370977 11.03873868 238.55335999 8.48101807 C206.93430473 8.54012005 175.3153313 8.61443622 143.69636666 8.71000435 C139.96380227 8.72127257 136.2312375 8.73241101 132.49867249 8.74346924 C131.75558327 8.74567292 131.01249405 8.74787661 130.24688698 8.75014707 C118.21351227 8.78552338 106.18013761 8.81038562 94.14673017 8.83136509 C81.80014407 8.85312449 69.45362547 8.88617622 57.10709679 8.92971963 C49.48808244 8.95623398 41.86915222 8.97393093 34.25009401 8.98036411 C28.40865652 8.98623965 22.56734352 9.00782326 16.7259655 9.03529358 C14.32901398 9.04409999 11.93203747 9.04779103 9.53507042 9.04602623 C6.26578765 9.04437892 2.99709234 9.06102716 -0.27210999 9.08229065 C-1.22347906 9.07744307 -2.17484814 9.0725955 -3.15504658 9.06760103 C-9.13298806 9.13189068 -13.70110549 9.83353835 -18.19664001 14.16851807 C-18.60914001 14.60164307 -19.02164001 15.03476807 -19.44664001 15.48101807 C-20.10664001 15.48101807 -20.76664001 15.48101807 -21.44664001 15.48101807 C-21.44664001 17.79101807 -21.44664001 20.10101807 -21.44664001 22.48101807 C-21.77664001 22.48101807 -22.10664001 22.48101807 -22.44664001 22.48101807 C-23.03161065 16.13733649 -22.65511118 11.69981082 -19.22398376 6.27008057 C-13.39999783 0.40769472 -7.87940494 -0.09523228 0 0 Z " fill="#C3B68E" transform="translate(141.44664001464844,377.51898193359375)"/>
<path d="M0 0 C0.66 0.33 1.32 0.66 2 1 C-0.17573064 5.00792487 -2.79053549 7.79053549 -6 11 C-8.97426241 15.0510942 -9.38003854 17.96372179 -9.39872742 22.94876099 C-9.40537442 23.63789918 -9.41202142 24.32703737 -9.41886985 25.03705853 C-9.43750912 27.34663366 -9.43489263 29.65569023 -9.43237305 31.96533203 C-9.44139827 33.63082698 -9.45172512 35.29631531 -9.46324825 36.96179485 C-9.49097315 41.51822414 -9.500128 46.0745285 -9.50609827 50.63103127 C-9.51558993 55.48923246 -9.54195507 60.34734454 -9.56625366 65.20549011 C-9.61051817 74.59817279 -9.6388723 83.99083817 -9.66169024 93.38359481 C-9.68853776 104.1747777 -9.73202531 114.9658746 -9.77581632 125.75699961 C-10.04636087 193.17084848 -10.1335116 260.58572555 -10 328 C-9.34 328.33 -8.68 328.66 -8 329 C-8.33 329.66 -8.66 330.32 -9 331 C-8.34 331 -7.68 331 -7 331 C-7 332.65 -7 334.3 -7 336 C-13.74679681 327.19983024 -12.1489533 315.1677222 -12.12698364 304.46995544 C-12.12854363 303.27900097 -12.13010362 302.0880465 -12.13171089 300.8610025 C-12.13498074 297.5956705 -12.13384289 294.33037646 -12.13072467 291.06504548 C-12.12844441 287.5278588 -12.13196314 283.99067691 -12.13470459 280.45349121 C-12.13913321 273.54034847 -12.13819884 266.62721663 -12.13529195 259.71407347 C-12.13302663 254.09234612 -12.13273027 248.4706218 -12.13381577 242.84889412 C-12.133969 242.04649004 -12.13412223 241.24408596 -12.13428011 240.41736661 C-12.13459986 238.78692833 -12.13492407 237.15649005 -12.1352527 235.52605177 C-12.13809892 220.26552915 -12.13483384 205.00501256 -12.12945233 189.74449093 C-12.12498422 176.66958274 -12.12576195 163.59468342 -12.13037109 150.51977539 C-12.13573054 135.30949462 -12.13782521 120.09921912 -12.13475883 104.88893753 C-12.1344403 103.26505506 -12.13412593 101.64117259 -12.13381577 100.01729012 C-12.13366149 99.21845741 -12.13350721 98.41962471 -12.13334826 97.59658496 C-12.13248728 91.98553062 -12.13393693 86.37447964 -12.13629532 80.76342583 C-12.1391087 73.91992487 -12.13832266 67.07643537 -12.13301457 60.23293572 C-12.13039841 56.74586851 -12.12933694 53.25882036 -12.13266373 49.77175331 C-12.13540813 45.98217034 -12.13195399 42.19264052 -12.12698364 38.40306091 C-12.12921436 37.31461661 -12.13144509 36.22617231 -12.13374341 35.10474485 C-12.0728727 11.0728727 -12.0728727 11.0728727 -4.3359375 3.3359375 C-2.94534636 2.1562417 -1.47924099 1.06642955 0 0 Z " fill="#6E9CC0" transform="translate(119,74)"/>
<path d="M0 0 C-1.32 0.66 -2.64 1.32 -4 2 C-4 2.66 -4 3.32 -4 4 C-87.16 4 -170.32 4 -256 4 C-256 3.67 -256 3.34 -256 3 C-254.73071529 2.99061433 -253.46143059 2.98122866 -252.15368271 2.97155857 C-222.03749299 2.74864976 -191.92134553 2.5207543 -161.80524056 2.28670079 C-158.10014113 2.25791021 -154.39504137 2.2291618 -150.68994141 2.20043945 C-149.9523088 2.19472053 -149.21467619 2.18900161 -148.45469108 2.1831094 C-136.50403865 2.09055573 -124.55336304 2.00141966 -112.60267541 1.91354198 C-100.34425287 1.82332551 -88.08586234 1.72944708 -75.82749391 1.63215441 C-68.26071308 1.57221397 -60.6939217 1.51514523 -53.12709197 1.46172559 C-47.32922243 1.42048865 -41.53140227 1.37416195 -35.73358727 1.32591057 C-33.3519207 1.30689279 -30.97024016 1.28954285 -28.58854866 1.2739563 C-25.34500953 1.25248398 -22.10157333 1.22509486 -18.85809326 1.19618225 C-17.9086804 1.1913132 -16.95926754 1.18644414 -15.98108459 1.18142754 C-15.11272168 1.1724697 -14.24435878 1.16351186 -13.34968185 1.15428257 C-12.22646912 1.14573886 -12.22646912 1.14573886 -11.08056521 1.13702255 C-7.26005146 0.88540989 -3.90132039 -0.10837001 0 0 Z " fill="#89C5E6" transform="translate(386,419)"/>
<path d="M0 0 C1.03911972 -0.0034177 2.07823944 -0.0068354 3.14884764 -0.01035666 C6.62372988 -0.01693466 10.09783625 0.00504016 13.57264709 0.0269165 C16.06625856 0.02804499 18.55987136 0.02741109 21.05348206 0.02514648 C26.41843542 0.0242362 31.78314821 0.03556654 37.14803886 0.05809784 C44.90465765 0.09065258 52.66118243 0.10102839 60.41786212 0.10604981 C73.00352747 0.11479703 85.58908892 0.14139701 98.17469788 0.17926025 C110.39799989 0.2159952 122.62127365 0.24429968 134.84461975 0.2612915 C135.59849057 0.2623424 136.35236138 0.26339329 137.12907677 0.26447603 C140.91115218 0.26969631 144.69322779 0.27475111 148.47530353 0.27972364 C179.83473123 0.32116784 211.1940298 0.39189866 242.55335999 0.48101807 C242.66961934 5.04330348 242.74063406 9.60520734 242.80335999 14.16851807 C242.83687561 15.46209229 242.87039124 16.7556665 242.90492249 18.08843994 C242.91781311 19.33560791 242.93070374 20.58277588 242.94398499 21.86773682 C242.96493225 23.01459961 242.98587952 24.1614624 243.00746155 25.34307861 C242.46260835 29.10813138 241.13514991 30.7540583 238.55335999 33.48101807 C238.22335999 32.49101807 237.89335999 31.50101807 237.55335999 30.48101807 C238.21335999 30.48101807 238.87335999 30.48101807 239.55335999 30.48101807 C239.55335999 29.16101807 239.55335999 27.84101807 239.55335999 26.48101807 C240.21335999 26.48101807 240.87335999 26.48101807 241.55335999 26.48101807 C241.55335999 18.23101807 241.55335999 9.98101807 241.55335999 1.48101807 C209.77290362 1.58590491 177.99246866 1.69540541 146.21205373 1.81213501 C142.46189033 1.82590493 138.71172677 1.83963198 134.96156311 1.85333252 C134.21495866 1.85606082 133.46835421 1.85878913 132.69912538 1.86160011 C120.60296518 1.90570059 108.50679567 1.94632547 96.41061917 1.98567068 C84.00304942 2.02610594 71.59549698 2.07026513 59.18795276 2.11789662 C51.5290308 2.14718072 43.87011013 2.17354426 36.21116564 2.19619704 C30.34280996 2.21386461 24.47448168 2.23670796 18.60615158 2.26150894 C16.19545211 2.27088023 13.78474539 2.27855523 11.37403488 2.28443718 C8.09110176 2.29269697 4.80824892 2.30697345 1.52534485 2.32279968 C0.56425914 2.32377779 -0.39682657 2.3247559 -1.38703609 2.32576364 C-2.70525572 2.33397531 -2.70525572 2.33397531 -4.05010605 2.34235287 C-5.18698872 2.34633993 -5.18698872 2.34633993 -6.34683871 2.35040754 C-8.48992895 2.4837107 -10.38537339 2.89397921 -12.44664001 3.48101807 C-12.30226501 4.34726807 -12.15789001 5.21351807 -12.00914001 6.10601807 C-12.58470006 10.54605273 -14.34619541 11.67201931 -17.72007751 14.37945557 C-19.44664001 15.48101807 -19.44664001 15.48101807 -21.44664001 15.48101807 C-21.44664001 17.79101807 -21.44664001 20.10101807 -21.44664001 22.48101807 C-21.77664001 22.48101807 -22.10664001 22.48101807 -22.44664001 22.48101807 C-23.03161065 16.13733649 -22.65511118 11.69981082 -19.22398376 6.27008057 C-13.39999783 0.40769472 -7.87940494 -0.09523228 0 0 Z " fill="#A6B7B1" transform="translate(141.44664001464844,377.51898193359375)"/>
<path d="M0 0 C0.66 0.33 1.32 0.66 2 1 C-0.17573064 5.00792487 -2.79053549 7.79053549 -6 11 C-9.29443835 15.30171767 -9.44192404 19.22982062 -9.43237305 24.4621582 C-9.44766052 25.721464 -9.44766052 25.721464 -9.46325684 27.00621033 C-9.49336357 29.77113539 -9.5026492 32.53571387 -9.51171875 35.30078125 C-9.52856716 37.22178802 -9.54671762 39.14278377 -9.56611633 41.06376648 C-9.61360482 46.11236123 -9.64342169 51.16091132 -9.66955566 56.20965576 C-9.69936693 61.3644696 -9.74589535 66.51912958 -9.79101562 71.67382812 C-9.87703569 81.78247159 -9.94438682 91.89114672 -10 102 C-12 100 -12 100 -12.24723816 97.03091431 C-12.24581314 95.75694794 -12.24438812 94.48298157 -12.24291992 93.17041016 C-12.24481827 92.46762939 -12.24671661 91.76484863 -12.24867249 91.04077148 C-12.25238953 88.70675646 -12.2416527 86.37305014 -12.23046875 84.0390625 C-12.22927602 82.4115706 -12.22882398 80.78407801 -12.2290802 79.15658569 C-12.22751308 75.73504356 -12.21921409 72.31360571 -12.20581055 68.89208984 C-12.18895493 64.53708345 -12.18499239 60.18219315 -12.18575573 55.82715797 C-12.18548151 52.45880045 -12.1799581 49.0904676 -12.17275429 45.72211838 C-12.16960073 44.1187903 -12.16760808 42.51545945 -12.16686058 40.91212845 C-12.13782219 11.13782219 -12.13782219 11.13782219 -4.3359375 3.3359375 C-2.94534636 2.1562417 -1.47924099 1.06642955 0 0 Z " fill="#719EC2" transform="translate(119,74)"/>
<path d="M0 0 C0.66 0 1.32 0 2 0 C2.14622024 3.20784721 2.23436651 6.41482961 2.3125 9.625 C2.3753418 10.98044922 2.3753418 10.98044922 2.43945312 12.36328125 C2.52179472 16.87560078 2.49958945 20.03264661 -0.39453125 23.6484375 C-3 26 -3 26 -5 26 C-5 26.66 -5 27.32 -5 28 C-6.65 28.33 -8.3 28.66 -10 29 C-9.505 28.5875 -9.01 28.175 -8.5 27.75 C-6.56613908 25.87797662 -6.56613908 25.87797662 -7 22 C-7.99 22.33 -8.98 22.66 -10 23 C-10 22.01 -10 21.02 -10 20 C-9.34 20 -8.68 20 -8 20 C-8.33 18.68 -8.66 17.36 -9 16 C-8.195625 15.566875 -7.39125 15.13375 -6.5625 14.6875 C-3.72153646 13.19525998 -3.72153646 13.19525998 -3 10 C-2.34 10 -1.68 10 -1 10 C-1.01160156 9.36191406 -1.02320313 8.72382813 -1.03515625 8.06640625 C-1.04417969 7.24011719 -1.05320312 6.41382813 -1.0625 5.5625 C-1.07410156 4.73878906 -1.08570313 3.91507812 -1.09765625 3.06640625 C-1 1 -1 1 0 0 Z " fill="#2C96D0" transform="translate(392,393)"/>
<path d="M0 0 C2.31 0.66 4.62 1.32 7 2 C7 2.66 7 3.32 7 4 C10.3 4.33 13.6 4.66 17 5 C16.67 6.32 16.34 7.64 16 9 C21.94 9.99 21.94 9.99 28 11 C28 11.33 28 11.66 28 12 C12.40980801 12.91348781 12.40980801 12.91348781 6.5859375 8.4375 C6.06257813 7.963125 5.53921875 7.48875 5 7 C4.21496094 6.319375 4.21496094 6.319375 3.4140625 5.625 C2 4.3125 2 4.3125 0 2 C0 1.34 0 0.68 0 0 Z " fill="#2589C0" transform="translate(112,410)"/>
<path d="M0 0 C0.66 0.33 1.32 0.66 2 1 C-0.17573064 5.00792487 -2.79053549 7.79053549 -6 11 C-8.78766008 14.87289074 -9.39934017 17.65215499 -9.51171875 22.39453125 C-9.54716797 23.59658203 -9.58261719 24.79863281 -9.61914062 26.03710938 C-9.64169922 27.28298828 -9.66425781 28.52886719 -9.6875 29.8125 C-9.72166016 31.07771484 -9.75582031 32.34292969 -9.79101562 33.64648438 C-9.87337129 36.76423445 -9.94256529 39.88170759 -10 43 C-12 41 -12 41 -12.23046875 37.9453125 C-12.1856627 33.96164708 -12.11653962 29.98209944 -12 26 C-11.98195313 24.8965625 -11.96390625 23.793125 -11.9453125 22.65625 C-11.6095813 14.99367902 -9.87170683 8.87170683 -4.3359375 3.3359375 C-2.94534636 2.1562417 -1.47924099 1.06642955 0 0 Z " fill="#84AAC7" transform="translate(119,74)"/>
<path d="M0 0 C-0.99 0.33 -1.98 0.66 -3 1 C-2.855625 1.86625 -2.71125 2.7325 -2.5625 3.625 C-3.13806005 8.06503466 -4.89955539 9.19100124 -8.2734375 11.8984375 C-10 13 -10 13 -12 13 C-12 15.31 -12 17.62 -12 20 C-12.33 20 -12.66 20 -13 20 C-13.60659385 13.4218267 -13.14589981 9.10270002 -9.38671875 3.59375 C-6.45679574 0.22640187 -4.26097586 -0.23032302 0 0 Z " fill="#B7B799" transform="translate(132,380)"/>
<path d="M0 0 C0.66 0 1.32 0 2 0 C2.05411124 2.41696872 2.09372278 4.83271787 2.125 7.25 C2.15013672 8.27287109 2.15013672 8.27287109 2.17578125 9.31640625 C2.21213482 13.0608235 2.07944349 15.82352727 0 19 C-2.0625 16.75 -2.0625 16.75 -4 14 C-3.75 11.6875 -3.75 11.6875 -3 10 C-2.34 10 -1.68 10 -1 10 C-1.01160156 9.36191406 -1.02320313 8.72382813 -1.03515625 8.06640625 C-1.04869141 6.82697266 -1.04869141 6.82697266 -1.0625 5.5625 C-1.07410156 4.73878906 -1.08570313 3.91507812 -1.09765625 3.06640625 C-1 1 -1 1 0 0 Z " fill="#1180C0" transform="translate(392,393)"/>
<path d="M0 0 C-3.05440102 3.02302019 -5.56947844 3.34125473 -9.78948975 3.33988953 C-10.90689545 3.31666374 -10.90689545 3.31666374 -12.046875 3.29296875 C-12.81807678 3.28872391 -13.58927856 3.28447906 -14.3838501 3.28010559 C-16.83959315 3.26335383 -19.29450629 3.22570939 -21.75 3.1875 C-23.41795687 3.17244857 -25.08592665 3.15876097 -26.75390625 3.14648438 C-30.83625578 3.11346194 -34.91798732 3.06170484 -39 3 C-39 2.67 -39 2.34 -39 2 C-37.6682373 1.96241577 -37.6682373 1.96241577 -36.30957031 1.92407227 C-33.00703963 1.82878203 -29.70467541 1.72955793 -26.40234375 1.62768555 C-24.97465612 1.58444682 -23.54692046 1.54276415 -22.11914062 1.50268555 C-20.06365504 1.44471398 -18.00840872 1.38109825 -15.953125 1.31640625 C-14.09929199 1.26141968 -14.09929199 1.26141968 -12.20800781 1.20532227 C-7.99621692 0.93575483 -4.25493561 -0.11819266 0 0 Z " fill="#1680B7" transform="translate(386,419)"/>
<path d="M0 0 C1.258125 0.226875 2.51625 0.45375 3.8125 0.6875 C3.8125 1.3475 3.8125 2.0075 3.8125 2.6875 C4.4725 2.6875 5.1325 2.6875 5.8125 2.6875 C5.8125 3.3475 5.8125 4.0075 5.8125 4.6875 C4.02116022 4.74141993 2.22936101 4.78025571 0.4375 4.8125 C-0.56023437 4.83570313 -1.55796875 4.85890625 -2.5859375 4.8828125 C-5.1875 4.6875 -5.1875 4.6875 -7.1875 2.6875 C-5.15110924 -0.49436057 -3.4972064 -0.45804119 0 0 Z " fill="#025BA0" transform="translate(126.1875,410.3125)"/>
<path d="M0 0 C0.33 0 0.66 0 1 0 C1.11629782 4.39561039 1.18728634 8.79082429 1.25 13.1875 C1.28351563 14.43337891 1.31703125 15.67925781 1.3515625 16.96289062 C1.37089844 18.7659668 1.37089844 18.7659668 1.390625 20.60546875 C1.41157227 21.71043701 1.43251953 22.81540527 1.45410156 23.95385742 C0.90231402 27.65528387 -0.46916923 29.30935033 -3 32 C-3.33 31.01 -3.66 30.02 -4 29 C-3.34 29 -2.68 29 -2 29 C-2 27.68 -2 26.36 -2 25 C-1.34 25 -0.68 25 0 25 C0 16.75 0 8.5 0 0 Z " fill="#A4B4A8" transform="translate(383,379)"/>
<path d="M0 0 C0.33 0 0.66 0 1 0 C1 2.31 1 4.62 1 7 C1.66 7.33 2.32 7.66 3 8 C3.625 10.0625 3.625 10.0625 4 12 C4.99 12 5.98 12 7 12 C7.33 12.66 7.66 13.32 8 14 C10.52733235 14.65555119 10.52733235 14.65555119 13 15 C10 17 10 17 7.625 16.5625 C3.97762183 14.39144157 1.79000321 11.85596525 0 8 C-0.39327484 5.18316894 -0.25105894 2.86207186 0 0 Z " fill="#C8CFC9" transform="translate(120,394)"/>
<path d="M0 0 C0.99 0 1.98 0 3 0 C3.12375 0.639375 3.2475 1.27875 3.375 1.9375 C3.58125 2.618125 3.7875 3.29875 4 4 C4.66 4.33 5.32 4.66 6 5 C2.04 5 -1.92 5 -6 5 C-6 4.34 -6 3.68 -6 3 C-4.02 3 -2.04 3 0 3 C0 2.01 0 1.02 0 0 Z " fill="#DDD8C0" transform="translate(374,406)"/>
<path d="M0 0 C2.375 0.6875 2.375 0.6875 5 2 C6.3125 4.625 6.3125 4.625 7 7 C6.01 7.33 5.02 7.66 4 8 C1.10067643 5.60490662 0.49831724 3.68754757 0 0 Z " fill="#5AA9D4" transform="translate(385,74)"/>
<path d="M0 0 C1.8871875 0.061875 1.8871875 0.061875 3.8125 0.125 C2.3275 1.61 2.3275 1.61 0.8125 3.125 C-0.1775 2.795 -1.1675 2.465 -2.1875 2.125 C-2.5175 2.785 -2.8475 3.445 -3.1875 4.125 C-4.5075 3.465 -5.8275 2.805 -7.1875 2.125 C-4.09861478 0.06574319 -3.47814073 -0.1140374 0 0 Z " fill="#349CD7" transform="translate(125.1875,415.875)"/>
<path d="M0 0 C2.9375 0.75 2.9375 0.75 6 2 C6.875 4.125 6.875 4.125 7 6 C4 6 4 6 1.8125 4.125 C0 2 0 2 0 0 Z " fill="#68ADD5" transform="translate(112,410)"/>
<path d="M0 0 C0.66 0.33 1.32 0.66 2 1 C0.8125 3.4375 0.8125 3.4375 -1 6 C-3.6875 6.8125 -3.6875 6.8125 -6 7 C-6 6.34 -6 5.68 -6 5 C-4.04072937 3.2856382 -2.04119788 1.61594832 0 0 Z " fill="#89B1CD" transform="translate(119,74)"/>
<path d="M0 0 C0 3 0 3 -2.5 5.6875 C-3.325 6.450625 -4.15 7.21375 -5 8 C-5 5 -5 5 -2.5 2.3125 C-1.675 1.549375 -0.85 0.78625 0 0 Z " fill="#A7B5AB" transform="translate(127,380)"/>
</svg>
