<?xml version="1.0" encoding="utf-8"?>
<svg version="1.2" baseProfile="tiny-ps" xmlns="http://www.w3.org/2000/svg" width="1024px" height="1024px" viewBox="0 0 1024 1024" preserveAspectRatio="xMidYMid meet">
 <g fill="#1e4e39">
  <path d="M345.7 895.7 c-1.4 -1 -1.7 -4.4 -1.9 -23.2 l-0.3 -22 -37 -0.3 c-20.3 -0.1 -37.7 -0.5 -38.5 -0.9 -0.8 -0.3 -2.2 -0.5 -3.1 -0.4 -2.5 0.3 -13 -3.9 -12.4 -5 0.4 -0.5 -0.2 -0.6 -1.1 -0.2 -1.3 0.5 -1.5 0.3 -0.9 -0.7 0.5 -0.9 0.4 -1.1 -0.4 -0.6 -1.5 0.9 -9.3 -4.2 -8.5 -5.5 0.3 -0.5 0 -0.8 -0.7 -0.7 -0.7 0.2 -1.4 -0.4 -1.4 -1.2 0 -0.8 -0.6 -1.4 -1.2 -1.3 -2.5 0.5 -12.1 -14.6 -10.7 -16.9 0.4 -0.6 0.3 -0.8 -0.3 -0.5 -1.7 1 -3.8 -8.1 -3.8 -16.1 0 -3.9 -0.2 -7.2 -0.5 -7.2 -0.3 0 -0.5 -18.2 -0.5 -40.5 0 -22.3 0.4 -40.5 0.8 -40.5 0.5 0 0.5 -1 0.2 -2.1 -1.1 -3.4 -1.3 -13.9 -0.3 -13.9 0.5 0 0.7 -0.4 0.4 -0.8 -1 -1.7 -1.6 -25.7 -0.6 -24.2 0.6 0.9 1 1 1 0.3 0 -0.6 -0.5 -1.5 -1 -1.8 -0.6 -0.3 -1 -2 -1 -3.6 0 -2 0.4 -2.8 1.2 -2.3 0.7 0.5 0.8 0.3 0.3 -0.7 -1.2 -1.9 -1.2 -30.8 -0.1 -31.2 0.6 -0.2 0.6 -0.9 0.1 -1.7 -1.1 -1.8 -1.3 -6 -0.2 -6 0.4 0 0.5 -0.5 0.1 -1.1 -1.2 -1.9 -1.4 -30.9 -0.3 -30.9 0.6 0 0.7 -0.5 0.3 -1.1 -1.1 -1.9 -1.4 -22.9 -0.3 -22.9 0.6 0 0.6 -0.7 0 -1.8 -1.2 -2.2 -1 -6.2 0.2 -6.2 0.4 0 0.5 -0.5 0.2 -1 -1.1 -1.8 -1.4 -31 -0.3 -31 0.5 0 0.6 -0.6 0.1 -1.2 -1.1 -1.8 -1 -47.7 0.1 -47 0.5 0.3 0.6 -0.1 0.1 -0.8 -1.3 -2 -1.6 -7 -0.4 -7 0.6 0 0.7 -0.5 0.2 -1.2 -1.1 -1.7 -1 -30.8 0.1 -30.8 0.4 0 0.5 -0.8 0.1 -1.7 -1 -2.6 -1.2 -14.3 -0.2 -14.3 0.4 0 0.5 -0.6 0 -1.2 -1.1 -1.7 -1 -22.8 0.1 -22.8 0.4 0 0.5 -0.8 0.1 -1.7 -0.9 -2.4 -1.2 -22.2 -0.3 -22.5 0.4 -0.2 0.3 -2 -0.1 -4 -0.6 -2.5 -0.5 -3.8 0.1 -3.8 0.6 0 0.7 -0.8 0.3 -1.7 -1.3 -3.4 -1.4 -7.3 -0.2 -7.3 0.9 0 0.9 -0.2 0 -0.8 -0.8 -0.5 -1.1 -5.4 -1.1 -15.9 0.1 -8.4 0.4 -15 0.8 -14.8 0.4 0.2 0.4 -1.3 0 -3.5 -0.4 -2.3 -0.3 -4 0.2 -4 0.5 0 0.6 -0.5 0.2 -1.2 -1.2 -1.9 -1.4 -14.8 -0.3 -14.8 0.6 0 0.8 -0.4 0.5 -0.8 -1 -1.6 -1.8 -15.2 -0.9 -15.2 0.6 0 0.6 -3 0 -7.6 -0.6 -5.7 -0.5 -7.9 0.4 -8.4 0.6 -0.4 0.9 -1.2 0.5 -1.8 -0.9 -1.6 -1.5 -14.2 -0.6 -14.7 0.4 -0.3 0.4 -2.1 0 -4 -0.5 -2.4 -0.4 -3.5 0.4 -3.5 0.8 0 0.8 -0.2 0 -0.8 -1.1 -0.7 -1.1 -37.4 -0.1 -50.2 0.6 -7.2 2.5 -14.2 3.7 -13.5 0.6 0.3 0.7 -0.1 0.4 -0.9 -0.7 -1.8 2.4 -7.9 3.6 -7.1 0.6 0.3 0.8 0 0.5 -0.7 -0.6 -1.6 3.9 -6.8 5.8 -6.8 1.7 0 3.6 -2 3.4 -3.5 -0.3 -1.6 8.5 -7 15.5 -9.6 l6.3 -2.4 242 -0.1 c133.1 0 246 0.3 251 0.7 6.8 0.7 10.4 1.6 15.1 3.9 6.7 3.3 11.8 7.5 10.9 8.9 -0.3 0.5 0 1.3 0.6 1.7 0.8 0.5 1 0.2 0.5 -0.7 -0.4 -0.8 0 -0.5 0.9 0.6 2.8 3.3 5.3 9.6 6.5 16.5 0.8 4.7 1 95.9 0.8 323 -0.3 304.8 -0.4 316.7 -2.1 321.2 -1.8 4.6 -4.3 7.9 -3.1 4.1 0.5 -1.5 0.4 -1.5 -0.4 -0.3 -0.6 0.8 -0.8 1.8 -0.6 2.2 0.8 1.3 -3.7 7 -5.1 6.5 -0.6 -0.3 -1.8 -0.1 -2.6 0.5 -1.1 0.8 -1 0.8 0.5 0.4 3.9 -1.3 -0.5 2.3 -6.3 5.1 l-5.6 2.8 -87.5 0.1 c-48.1 0.1 -85.7 -0.2 -83.5 -0.6 3.2 -0.6 2.3 -0.7 -4 -0.7 -6.2 0 -7.1 0.1 -4 0.7 2.2 0.4 -36.7 0.8 -86.4 0.9 -49.7 0 -90.7 0.4 -91.2 0.7 -0.5 0.3 -0.9 10.4 -0.9 22.5 0 19.3 -0.2 22 -1.6 22.6 -2.1 0.8 -7 -1 -6.6 -2.5 0.1 -0.7 -0.3 -1.1 -1 -1 -0.7 0.2 -1.2 -0.4 -1.3 -1.2 0 -0.8 -0.7 -1.4 -1.4 -1.2 -0.8 0.2 -2.4 -0.7 -3.7 -1.9 -1.9 -1.7 -2.1 -2.5 -1.2 -3.2 1 -0.6 0.9 -0.7 -0.2 -0.4 -1.6 0.4 -8.7 -5.1 -8.3 -6.5 0.2 -0.4 -0.3 -0.7 -1 -0.5 -0.6 0.1 -1.1 -0.4 -1 -1 0.2 -0.7 -0.3 -1.2 -1 -1 -0.6 0.1 -1.1 -0.4 -1 -1 0.2 -0.7 0 -1.2 -0.5 -1.2 -0.4 0.1 -0.9 0 -1.2 -0.1 -2.4 -0.9 -4.1 -0.5 -5.7 1.3 l-1.8 2.2 2.5 -1.9 c1.4 -1 -0.3 0.9 -3.8 4.3 -3.5 3.4 -6.8 5.9 -7.4 5.5 -0.6 -0.4 -0.8 -0.3 -0.5 0.4 0.4 0.5 -1.6 3.1 -4.5 5.7 -6.7 6 -8.1 6.7 -10.1 5.2z m-66.9 -47.4 c-2.1 -0.2 -5.5 -0.2 -7.5 0 -2.1 0.2 -0.4 0.4 3.7 0.4 4.1 0 5.8 -0.2 3.8 -0.4z m38 0 c-1 -0.2 -2.6 -0.2 -3.5 0 -1 0.3 -0.2 0.5 1.7 0.5 1.9 0 2.7 -0.2 1.8 -0.5z m15.9 0 c-2 -0.2 -5.2 -0.2 -7 0 -1.7 0.2 0 0.4 3.8 0.4 3.9 0 5.3 -0.2 3.2 -0.4z m107.1 0 c-1.6 -0.2 -4 -0.2 -5.5 0 -1.6 0.2 -0.3 0.4 2.7 0.4 3 0 4.3 -0.2 2.8 -0.4z m13 0 c-1 -0.2 -2.8 -0.2 -4 0 -1.3 0.2 -0.5 0.4 1.7 0.4 2.2 0.1 3.2 -0.1 2.3 -0.4z m8 0 c-1 -0.2 -2.6 -0.2 -3.5 0 -1 0.3 -0.2 0.5 1.7 0.5 1.9 0 2.7 -0.2 1.8 -0.5z m8 0 c-1 -0.2 -2.8 -0.2 -4 0 -1.3 0.2 -0.5 0.4 1.7 0.4 2.2 0.1 3.2 -0.1 2.3 -0.4z m7 0 c-1 -0.2 -2.6 -0.2 -3.5 0 -1 0.3 -0.2 0.5 1.7 0.5 1.9 0 2.7 -0.2 1.8 -0.5z m20.5 0 c-2.9 -0.2 -7.8 -0.2 -11 0 -3.2 0.2 -0.8 0.3 5.2 0.3 6.1 0 8.7 -0.1 5.8 -0.3z m20 0 c-1.3 -0.2 -3.3 -0.2 -4.5 0 -1.3 0.2 -0.3 0.4 2.2 0.4 2.5 0 3.5 -0.2 2.3 -0.4z m8.5 0 c-1 -0.2 -2.8 -0.2 -4 0 -1.3 0.2 -0.5 0.4 1.7 0.4 2.2 0.1 3.2 -0.1 2.3 -0.4z m24.5 0 c-1.3 -0.2 -3.3 -0.2 -4.5 0 -1.3 0.2 -0.3 0.4 2.2 0.4 2.5 0 3.5 -0.2 2.3 -0.4z m19.5 0 c-3.2 -0.2 -8.4 -0.2 -11.5 0 -3.2 0.2 -0.6 0.3 5.7 0.3 6.3 0 8.9 -0.1 5.8 -0.3z m11 0 c-1 -0.2 -2.6 -0.2 -3.5 0 -1 0.3 -0.2 0.5 1.7 0.5 1.9 0 2.7 -0.2 1.8 -0.5z m55 0 c-6.4 -0.2 -17.2 -0.2 -24 0 -6.8 0.1 -1.5 0.3 11.7 0.3 13.2 0 18.7 -0.2 12.3 -0.3z m31.5 0 c-1.3 -0.2 -3.5 -0.2 -5 0 -1.6 0.2 -0.5 0.4 2.2 0.4 2.8 0 4 -0.2 2.8 -0.4z m12.4 0 c-2 -0.2 -5.2 -0.2 -7 0 -1.7 0.2 0 0.4 3.8 0.4 3.9 0 5.3 -0.2 3.2 -0.4z m13.1 0 c-1.5 -0.2 -4.2 -0.2 -6 0 -1.8 0.2 -0.6 0.4 2.7 0.4 3.3 0 4.8 -0.2 3.3 -0.4z m9 0 c-1 -0.2 -2.8 -0.2 -4 0 -1.3 0.2 -0.5 0.4 1.7 0.4 2.2 0.1 3.2 -0.1 2.3 -0.4z m8 0 c-1 -0.2 -2.8 -0.2 -4 0 -1.3 0.2 -0.5 0.4 1.7 0.4 2.2 0.1 3.2 -0.1 2.3 -0.4z m14 0 c-2.1 -0.2 -5.7 -0.2 -8 0 -2.4 0.2 -0.7 0.4 3.7 0.4 4.4 0 6.3 -0.2 4.3 -0.4z m10 0 c-1 -0.2 -2.8 -0.2 -4 0 -1.3 0.2 -0.5 0.4 1.7 0.4 2.2 0.1 3.2 -0.1 2.3 -0.4z m21.5 0 c-2.3 -0.2 -6.4 -0.2 -9 0 -2.6 0.2 -0.7 0.3 4.2 0.3 5 0 7.1 -0.1 4.8 -0.3z m17.7 -689.8 c-1.4 -0.8 -2.9 -1.4 -3.5 -1.4 -0.5 0 0.1 0.6 1.5 1.4 1.4 0.8 3 1.4 3.5 1.4 0.6 0 -0.1 -0.6 -1.5 -1.4z"/>
 </g>
 <g fill="#2b5f46">
  <path d="M345.2 894.7 c-0.7 -0.9 -1.2 -8.9 -1.2 -22.6 -0.1 -11.7 -0.4 -21.8 -0.6 -22.5 -0.3 -0.8 -3.8 -1.2 -10.7 -1.2 -8.6 -0.1 -9.3 0 -4.2 0.6 l6 0.7 -7.3 0.1 c-4 0.1 -7.1 -0.2 -6.8 -0.6 0.3 -0.5 -1.5 -1 -3.9 -1 -2.5 -0.1 -4.5 0.2 -4.5 0.8 0 0.6 -6.9 0.9 -19.2 0.8 -11.6 0 -17.5 -0.4 -14.8 -0.8 4 -0.6 3.7 -0.7 -3 -0.8 -5.2 -0.1 -7 0.1 -6 0.8 0.9 0.6 1 1 0.3 1 -0.6 0 -1.5 -0.5 -1.8 -1.1 -0.4 -0.5 -1.7 -0.9 -2.8 -0.8 -1.2 0.2 -3.7 -0.1 -5.6 -0.5 -2.5 -0.6 -3 -1.1 -2 -1.7 1 -0.6 0.4 -0.9 -1.9 -0.9 -2 0 -3.5 -0.6 -3.8 -1.5 -0.4 -0.8 -1.2 -1.5 -2 -1.5 -0.8 0 -1.4 -0.4 -1.4 -1 0 -0.5 -0.6 -1 -1.3 -1 -2.8 0 -15.1 -13.2 -15.9 -17.1 -0.2 -0.8 -0.6 -1.6 -0.9 -1.9 -1.6 -1.4 -4.9 -10 -4.8 -12.6 0 -2.4 0.4 -1.8 2.2 3.1 2.9 7.8 6.5 12.9 11.6 16.6 2.2 1.7 4.1 3.4 4.1 3.9 0 0.5 1.6 1.8 3.4 3 4.2 2.5 17.2 3.3 18.6 1 0.4 -0.7 1.5 -1 2.3 -0.7 0.8 0.3 1.9 0.1 2.5 -0.5 0.6 -0.6 5.3 -1.4 10.4 -1.8 l9.3 -0.7 -10.5 -0.2 c-6.8 -0.1 -11.5 -0.7 -13.5 -1.7 -2.4 -1.1 -2.5 -1.3 -0.5 -0.7 1.4 0.4 19.6 0.7 40.5 0.8 l38 0.1 -37 -0.6 c-29 -0.5 -37.9 -1 -41.4 -2.1 -6.8 -2.4 -14.8 -10.1 -18.5 -17.8 -7.8 -16.7 -0.2 -36.8 16.9 -44.8 l6 -2.8 250.8 -0.3 250.8 -0.2 -0.3 28.9 c-0.3 27.4 -0.4 29.1 -2.4 31.7 -1.1 1.5 -3.3 3.7 -4.8 4.8 -2.7 2.1 -2.7 2.1 -178.7 2.4 l-175.9 0.2 0 -21.5 c0 -14.7 -0.3 -21.5 -1.1 -21.5 -1.2 0 -0.8 40.8 0.5 42.8 1 1.7 347.6 1.8 352.7 0.1 1.9 -0.7 4.6 -2.3 6.2 -3.7 1.5 -1.4 2.7 -2 2.7 -1.4 0 4.1 11.3 -5.2 12.6 -10.4 0.4 -1.6 1.2 -3.6 1.9 -4.4 0.7 -0.9 1.1 -4.1 1 -7.5 -0.1 -6.3 1.1 -10.8 2.9 -10.2 0.7 0.2 1.2 5.8 1.3 15.8 0.2 11.9 -0.2 16.5 -1.4 20.4 -0.9 2.8 -1.8 4.4 -2.1 3.6 -0.3 -0.9 -1.1 -0.2 -2.1 1.9 -0.9 1.9 -3.1 4.4 -4.9 5.6 -1.8 1.3 -3.2 2.6 -3.1 3.1 0.2 0.4 -1.2 1.8 -3.1 3.1 -3.1 2 -6.3 2.7 -11.7 2.3 -1.1 -0.1 -2.4 0.3 -2.8 0.8 -0.4 0.7 -10.1 1.1 -29.1 1.1 -18.8 0 -28.3 -0.3 -27.9 -1 0.4 -0.6 -0.9 -1 -3.2 -0.9 -3.8 0.1 -3.8 0.1 -0.8 0.9 1.7 0.4 -21.7 0.8 -52 0.7 -30.2 0 -53.2 -0.3 -51 -0.7 3.1 -0.6 2.3 -0.7 -4 -0.7 -6.2 0 -7.1 0.1 -4 0.7 2.3 0.4 -4.6 0.7 -15.7 0.8 -12.5 0.1 -19.8 -0.2 -19.8 -0.8 0 -0.6 -1.9 -0.9 -4.2 -0.9 l-4.3 0.2 4 0.7 c2.2 0.4 -4.9 0.7 -16 0.7 -11 0 -18.2 -0.3 -16 -0.7 3.2 -0.6 2.6 -0.7 -3.5 -0.7 -4.8 0 -6.8 0.2 -5.5 0.7 1.1 0.5 -3.8 0.8 -11.5 0.7 l-13.5 -0.1 10.5 -0.6 10.5 -0.6 -10.7 -0.2 c-6.9 -0.1 -10.8 0.2 -10.8 0.8 0 0.7 -0.6 0.7 -1.9 0 -1.1 -0.5 -3.2 -0.9 -4.8 -0.9 -2.6 0.2 -2.5 0.2 0.7 0.9 2.7 0.6 2 0.7 -3.5 0.7 -5.5 0 -6.2 -0.1 -3.5 -0.7 l3.5 -0.7 -3.7 -0.2 c-2.1 0 -3.8 0.4 -3.8 0.9 0 0.6 -8.8 1 -24.5 1 -15.7 0 -24.5 -0.4 -24.5 -1 0 -0.5 -1.5 -1 -3.3 -1 l-3.3 0 0.3 22.6 c0.3 23 0 25.4 -3.4 25.4 -0.8 0 -2.9 -1.5 -4.6 -3.3 -1.8 -1.9 -4.4 -4.2 -5.9 -5.1 -1.5 -1 -2.5 -2.2 -2.2 -2.7 0.3 -0.5 -0.1 -0.9 -0.8 -0.9 -0.7 0 -4.2 -2.7 -7.7 -6 -3.5 -3.3 -7.1 -6 -8.1 -6 -1 0 -2.7 1.1 -3.8 2.5 -1.1 1.3 -2.2 2.2 -2.6 2 -0.3 -0.3 -0.4 -0.2 -0.1 0.1 0.7 1 -1.5 4.5 -2.5 3.9 -0.9 -0.6 -6.9 5.1 -9.7 9.3 -0.8 1.2 -2.1 2.2 -2.8 2.2 -0.6 0 -2 0.9 -3 2 -2.1 2.3 -3.8 2.5 -5.3 0.7z m94.6 -46.4 c-1.6 -0.2 -4 -0.2 -5.5 0 -1.6 0.2 -0.3 0.4 2.7 0.4 3 0 4.3 -0.2 2.8 -0.4z m13 0 c-1 -0.2 -2.8 -0.2 -4 0 -1.3 0.2 -0.5 0.4 1.7 0.4 2.2 0.1 3.2 -0.1 2.3 -0.4z m8 0 c-1 -0.2 -2.6 -0.2 -3.5 0 -1 0.3 -0.2 0.5 1.7 0.5 1.9 0 2.7 -0.2 1.8 -0.5z m64 0 c-1 -0.2 -2.8 -0.2 -4 0 -1.3 0.2 -0.5 0.4 1.7 0.4 2.2 0.1 3.2 -0.1 2.3 -0.4z m44 0 c-3.2 -0.2 -8.4 -0.2 -11.5 0 -3.2 0.2 -0.6 0.3 5.7 0.3 6.3 0 8.9 -0.1 5.8 -0.3z m11 0 c-1 -0.2 -2.6 -0.2 -3.5 0 -1 0.3 -0.2 0.5 1.7 0.5 1.9 0 2.7 -0.2 1.8 -0.5z m55 0 c-6.4 -0.2 -17.2 -0.2 -24 0 -6.8 0.1 -1.5 0.3 11.7 0.3 13.2 0 18.7 -0.2 12.3 -0.3z m31.5 0 c-1.3 -0.2 -3.5 -0.2 -5 0 -1.6 0.2 -0.5 0.4 2.2 0.4 2.8 0 4 -0.2 2.8 -0.4z m12.4 0 c-2 -0.2 -5.2 -0.2 -7 0 -1.7 0.2 0 0.4 3.8 0.4 3.9 0 5.3 -0.2 3.2 -0.4z m13.1 0 c-1.5 -0.2 -4.2 -0.2 -6 0 -1.8 0.2 -0.6 0.4 2.7 0.4 3.3 0 4.8 -0.2 3.3 -0.4z m17 0 c-1 -0.2 -2.8 -0.2 -4 0 -1.3 0.2 -0.5 0.4 1.7 0.4 2.2 0.1 3.2 -0.1 2.3 -0.4z m14 0 c-2.1 -0.2 -5.7 -0.2 -8 0 -2.4 0.2 -0.7 0.4 3.7 0.4 4.4 0 6.3 -0.2 4.3 -0.4z m10 0 c-1 -0.2 -2.8 -0.2 -4 0 -1.3 0.2 -0.5 0.4 1.7 0.4 2.2 0.1 3.2 -0.1 2.3 -0.4z m21.5 0 c-2.3 -0.2 -6.4 -0.2 -9 0 -2.6 0.2 -0.7 0.3 4.2 0.3 5 0 7.1 -0.1 4.8 -0.3z"/>
  <path d="M299 760.2 c0 -1.4 1.1 -2.1 2.6 -1.5 2.1 0.8 1.7 2.3 -0.6 2.3 -1.1 0 -2 -0.4 -2 -0.8z"/>
  <path d="M372 760 c0 -0.5 0.9 -1 2 -1 1.1 0 2 0.5 2 1 0 0.6 -0.9 1 -2 1 -1.1 0 -2 -0.4 -2 -1z"/>
  <path d="M380 760 c0 -0.5 0.7 -1 1.5 -1 0.8 0 1.5 0.5 1.5 1 0 0.6 -0.7 1 -1.5 1 -0.8 0 -1.5 -0.4 -1.5 -1z"/>
  <path d="M397 760 c0 -0.5 0.7 -1 1.5 -1 0.8 0 1.5 0.5 1.5 1 0 0.6 -0.7 1 -1.5 1 -0.8 0 -1.5 -0.4 -1.5 -1z"/>
  <path d="M405 760 c0 -0.5 0.7 -1 1.5 -1 0.8 0 1.5 0.5 1.5 1 0 0.6 -0.7 1 -1.5 1 -0.8 0 -1.5 -0.4 -1.5 -1z"/>
  <path d="M410 760 c0 -0.5 1.6 -1 3.5 -1 1.9 0 3.5 0.5 3.5 1 0 0.6 -1.6 1 -3.5 1 -1.9 0 -3.5 -0.4 -3.5 -1z"/>
  <path d="M418 760 c0 -0.5 0.9 -1 2 -1 1.1 0 2 0.5 2 1 0 0.6 -0.9 1 -2 1 -1.1 0 -2 -0.4 -2 -1z"/>
  <path d="M508 760 c0 -0.5 0.7 -1 1.5 -1 0.8 0 1.5 0.5 1.5 1 0 0.6 -0.7 1 -1.5 1 -0.8 0 -1.5 -0.4 -1.5 -1z"/>
  <path d="M614 760 c0 -0.5 0.7 -1 1.5 -1 0.8 0 1.5 0.5 1.5 1 0 0.6 -0.7 1 -1.5 1 -0.8 0 -1.5 -0.4 -1.5 -1z"/>
  <path d="M620 760 c0 -0.5 0.7 -1 1.5 -1 0.8 0 1.5 0.5 1.5 1 0 0.6 -0.7 1 -1.5 1 -0.8 0 -1.5 -0.4 -1.5 -1z"/>
  <path d="M644 760 c0 -0.5 0.7 -1 1.5 -1 0.8 0 1.5 0.5 1.5 1 0 0.6 -0.7 1 -1.5 1 -0.8 0 -1.5 -0.4 -1.5 -1z"/>
  <path d="M652 760 c0 -0.5 0.7 -1 1.5 -1 0.8 0 1.5 0.5 1.5 1 0 0.6 -0.7 1 -1.5 1 -0.8 0 -1.5 -0.4 -1.5 -1z"/>
  <path d="M676 760 c0 -0.5 0.7 -1 1.5 -1 0.8 0 1.5 0.5 1.5 1 0 0.6 -0.7 1 -1.5 1 -0.8 0 -1.5 -0.4 -1.5 -1z"/>
  <path d="M756 760 c0 -0.6 2.8 -1 6.5 -1 3.7 0 6.5 0.4 6.5 1 0 0.6 -2.8 1 -6.5 1 -3.7 0 -6.5 -0.4 -6.5 -1z"/>
  <path d="M253 460.3 c0 -160 -0.3 -293.2 -0.7 -296.2 -0.5 -4.9 -0.4 -5.4 1.1 -4.8 0.9 0.4 1.5 0.3 1.2 -0.1 -0.8 -1.4 0.9 -3.1 3.4 -3.6 1.4 -0.2 2.5 -0.5 2.5 -0.6 0 -0.5 5.9 -1.2 12.8 -1.7 l7.7 -0.5 0 296 c0 267 -0.2 296.1 -1.6 296.6 -0.9 0.3 -3.7 0.6 -6.3 0.6 -5.1 0 -16 2.5 -17.5 4.1 -0.6 0.5 -1.4 0.9 -1.8 0.9 -0.4 0 -0.8 -130.8 -0.8 -290.7z"/>
  <path d="M299 449.4 l0 -296.5 11.3 0 c6.1 0 41.3 -0.1 78.2 -0.4 43.9 -0.2 67.4 0 68.2 0.6 0.7 0.7 5 0.8 11 0.4 8.3 -0.5 45.4 -0.7 91.8 -0.5 6.6 0 30.7 0 53.5 0 22.8 0 46.5 0 52.5 0.1 6.1 0.1 15.4 0 20.8 -0.2 5.4 -0.3 10 -0.2 10.3 0.2 0.2 0.4 13.4 0.5 29.3 0.2 25.4 -0.5 29.7 -0.4 36.2 1.2 4.1 1 7.9 2.2 8.4 2.7 0.6 0.6 0.3 0.7 -1 0.3 -1.6 -0.6 -1.7 -0.5 -0.5 0.4 0.8 0.6 3.2 1.6 5.3 2.2 4 1.1 8.1 4.4 7.2 5.8 -0.2 0.5 0.6 1.6 2 2.5 1.9 1.3 2.4 2.2 1.9 4 -0.3 1.4 -0.1 2.7 0.7 3.2 0.9 0.5 1 0.2 0.5 -1.2 -0.4 -1.1 -0.4 -1.5 0.2 -0.9 0.5 0.6 1.7 4.6 2.6 9 1.6 7.4 1.7 17 1.3 131.5 -0.2 67.9 -0.5 192.6 -0.6 277.1 l-0.2 153.7 -3.1 0.6 c-1.7 0.3 -112.1 0.6 -245.4 0.6 l-242.4 0 0 -296.6z m66 253.4 c-2 -5.5 -8.2 -13.8 -10.3 -13.8 -0.6 0 0.5 1.7 2.5 3.8 3.2 3.2 5.9 8 8.2 14.6 0.4 1 0.9 1.7 1.2 1.4 0.2 -0.3 -0.4 -3 -1.6 -6z m349.5 -0.3 c1.3 -3 1.9 -5.5 1.5 -5.5 -0.8 0 -5 10 -5 11.7 0 1.5 1.4 -1 3.5 -6.2z m-14.5 -7 c0.8 -1.6 2.5 -4.7 3.8 -6.9 1.3 -2.1 2.1 -4.1 1.8 -4.3 -0.6 -0.6 -6.6 9.8 -6.6 11.5 0 0.9 -32.6 1.2 -159.5 1.2 l-159.5 0 -3 -5.9 c-1.6 -3.3 -3.4 -6.2 -4 -6.6 -1.5 -0.9 -1.2 1.1 0.4 2.4 0.8 0.7 2.4 3.6 3.6 6.6 l2.2 5.5 159.7 -0.2 159.6 -0.3 1.5 -3z m21.5 -3.5 c1.6 -1.6 2.6 -3.2 2.4 -3.5 -0.3 -0.2 -2.1 1.1 -3.9 3 -1.9 1.9 -2.9 3.5 -2.4 3.5 0.6 0 2.3 -1.3 3.9 -3z m-373.5 -6.9 c0 -0.9 -4.1 -2.3 -4.9 -1.6 -0.3 0.4 2.8 2 4.7 2.4 0.1 0.1 0.2 -0.3 0.2 -0.8z m385.6 -1.2 c0.8 -1.4 -1 -1.1 -3.2 0.6 -1.8 1.3 -1.8 1.4 0.4 0.8 1.2 -0.3 2.5 -0.9 2.8 -1.4z m-392.1 -0.9 c-0.3 -0.5 -1.7 -1 -3.1 -1 l-2.4 0 0 -226.4 0 -226.4 3 -0.7 c4.1 -0.9 3.8 -2 -0.5 -2 l-3.5 0 0 227.5 c0 125.1 0.3 227.7 0.8 228.1 0.6 0.6 3.2 1.5 5.5 1.8 0.5 0 0.5 -0.3 0.2 -0.9z m397 0 c1.9 -0.8 1.9 -0.9 -0.2 -0.9 -1.2 -0.1 -2.5 0.4 -2.8 0.9 -0.7 1.2 0.2 1.2 3 0z m-369 -3 c-1 -1.1 -2.3 -2 -2.8 -2 -0.6 0 0 1.1 1.3 2.5 2.7 2.9 4.2 2.5 1.5 -0.5z m346.4 -4.7 c0.2 -0.2 0.2 -0.5 0 -0.8 -0.3 -0.2 -2.5 1.7 -5 4.3 l-4.4 4.7 4.5 -4 c2.5 -2.2 4.7 -4.1 4.9 -4.2z m13.4 -219.9 l-0.3 -213.7 -5.2 -2.4 c-2.9 -1.3 -6.1 -3.2 -7 -4 -1 -0.9 -1.8 -1.2 -1.8 -0.7 0 1.3 8 6.4 11 7 l2.5 0.5 -0.3 212.2 c-0.2 189.7 -0.1 214.7 1 214.7 0.2 0 0.2 -96.1 0.1 -213.6z m-361.3 -224.9 c1.8 -1.9 3.1 -3.7 2.9 -4 -0.3 -0.2 -2.3 1.3 -4.4 3.5 -2.2 2.2 -3.5 4 -2.9 4 0.6 0 2.5 -1.6 4.4 -3.5z m343.5 0.5 c-1.6 -1.6 -3.1 -2.8 -3.3 -2.5 -0.7 0.7 3.9 5.5 5.2 5.5 0.5 0 -0.3 -1.3 -1.9 -3z m27.5 -3.7 c-5.7 -1.8 -7 -2.1 -7 -1.3 0 0.5 0.8 1.1 1.8 1.3 2.3 0.6 7.1 0.7 5.2 0z m-382.3 -8.6 c1.8 -1.7 3 -3.3 2.8 -3.6 -0.3 -0.2 -2.4 1.4 -4.8 3.6 -2.3 2.2 -5.2 4.4 -6.4 4.7 -1.1 0.4 -2.7 1.3 -3.3 2.1 -2.1 2.5 8.3 -3.5 11.7 -6.8z m8.3 -13.5 c1.2 -3 1.8 -5.7 1.6 -6 -0.3 -0.3 -0.8 0.4 -1.2 1.4 -0.4 1 -1.7 4.3 -3 7.3 -1.3 2.9 -2.4 5.6 -2.4 6 0.1 1.6 3.2 -3.8 5 -8.7z"/>
 </g>
 <g fill="#c1b489">
  <path d="M267.2 828.2 c-8.6 -2.3 -16.3 -9.1 -20.6 -18.1 -2.5 -5.5 -3 -7.7 -2.9 -13.6 0.1 -13.8 7.6 -25.5 19.8 -31.2 l6 -2.8 250.8 -0.3 250.8 -0.2 -0.3 28.9 c-0.3 27.4 -0.4 29.1 -2.4 31.7 -1.1 1.5 -3.3 3.7 -4.8 4.8 -2.7 2.1 -2.7 2.1 -178.7 2.4 l-175.9 0.2 0 -21.5 0 -21.5 -32.5 0 -32.5 0 -0.2 21.3 -0.3 21.2 -35 0.2 c-30.1 0.2 -35.9 -0.1 -41.3 -1.5z"/>
 </g>
 <g fill="#ddc672">
  <path d="M367.1 708.4 c-2.2 -8.7 -9.3 -19.1 -14.6 -21.5 -1.1 -0.6 -3.1 -1.6 -4.5 -2.4 -1.4 -0.8 -4.6 -1.8 -7.2 -2.1 l-4.8 -0.7 0 -226.2 0 -226.3 3.2 -0.7 c4.6 -1 13.7 -6.1 17.6 -9.8 4.1 -3.9 8.9 -13.1 9.8 -18.6 l0.7 -4.1 171.6 0 171.7 0 1.2 6 c2.6 12.2 13.3 23.5 24.6 26.1 l5.4 1.2 -0.1 226.1 -0.2 226 -4.1 0.7 c-12.8 2.2 -22.9 12.2 -26.5 26.3 l-1.1 4.6 -170.8 0 -170.8 0 -1.1 -4.6z m331.4 -10.2 c0.6 -0.4 2.3 -3.4 4 -6.7 4.8 -9.7 15.8 -19 25.8 -21.9 1.6 -0.5 1.7 -11.6 1.7 -214.3 l0 -213.8 -4.7 -1.7 c-9.6 -3.5 -20.7 -14.8 -24.3 -24.8 l-1.2 -3.5 -160.8 0.5 c-88.5 0.3 -161 0.7 -161.2 1 -0.2 0.3 -1.4 2.8 -2.8 5.5 -3.3 6.7 -14.3 17.6 -20.3 20.1 l-4.7 1.9 0.1 214.5 0 214.5 6.1 2.9 c7.9 3.8 16.4 12.3 20.2 20.4 l3 6.2 159 0 c87.5 0 159.6 -0.4 160.1 -0.8z"/>
 </g>
 <g fill="#e5d7b6">
  <path d="M267.2 828.2 c-15.3 -4.1 -25.6 -20.5 -23.1 -36.5 2.2 -13.7 11.3 -24.1 24.2 -27.8 1.9 -0.5 104.1 -0.9 252.5 -0.9 l249.3 0 -0.1 28.2 c-0.1 31.5 -0.2 32.3 -7 36.3 -3.5 2 -4.5 2 -178.7 2.3 l-175.3 0.2 0 -21.5 0 -21.5 -32.5 0 -32.5 0 -0.2 21.3 -0.3 21.2 -35 0.2 c-30.1 0.2 -35.9 -0.1 -41.3 -1.5z m500.2 -6.6 c1.3 -2.9 1.6 -7.6 1.6 -30.5 l0 -27.1 -250.7 0.2 -250.8 0.3 -5.1 2.7 c-8.4 4.4 -14.7 12.9 -16.9 22.6 -0.7 3.2 -0.7 3.2 2.2 2 1.5 -0.6 4.8 -3.1 7.3 -5.4 2.5 -2.3 6.5 -5.3 9 -6.5 l4.5 -2.4 247.3 -0.3 247.2 -0.2 0 21.9 c0 13.6 -0.4 22.2 -1 22.6 -1.6 1 -1.1 3.3 0.8 3.8 2.4 0.5 2.7 0.2 4.6 -3.7z"/>
 </g>
</svg>