<?xml version="1.0" encoding="UTF-8"?>
<svg version="1.1" xmlns="http://www.w3.org/2000/svg" width="1080" height="1920">
<path d="M0 0 C356.4 0 712.8 0 1080 0 C1080 633.6 1080 1267.2 1080 1920 C723.6 1920 367.2 1920 0 1920 C0 1286.4 0 652.8 0 0 Z " fill="#FEFEFE" transform="translate(0,0)"/>
<path d="M0 0 C2.0727958 -0.00159189 4.14559107 -0.00405923 6.21838492 -0.00731641 C11.86483287 -0.01367855 17.51120819 -0.00770194 23.15765131 0.00044787 C29.26602733 0.0070651 35.37439575 0.00206773 41.48277283 -0.00143433 C52.05250647 -0.00588128 62.62222005 -0.00302379 73.19194984 0.00521278 C84.27722686 0.01384895 95.36249436 0.01873243 106.44777489 0.01854515 C107.13921069 0.01853751 107.83064649 0.01852986 108.54303489 0.01852198 C111.35018569 0.01848107 114.15733649 0.01841545 116.96448729 0.01831617 C143.25831581 0.01741157 169.55212988 0.0273331 195.8459534 0.04274584 C219.18422555 0.05637569 242.52248745 0.06260672 265.86076355 0.06193542 C267.36016307 0.06189501 268.85956258 0.06185465 270.3589621 0.06181435 C271.47089979 0.06178382 271.47089979 0.06178382 272.60530087 0.06175268 C276.33721572 0.06165187 280.06913057 0.06156129 283.80104542 0.06148243 C284.90553099 0.06145736 284.90553099 0.06145736 286.0323294 0.06143178 C305.5636887 0.06106633 325.09504671 0.06560813 344.62640494 0.07180899 C345.66898004 0.0721394 345.66898004 0.0721394 346.73261727 0.07247648 C349.52725505 0.07336465 352.32189284 0.07425307 355.11653062 0.07516744 C364.82187016 0.0783218 374.52720869 0.07983597 384.2325487 0.08027893 C396.73829763 0.08087694 409.24403906 0.08500207 421.74978492 0.09471039 C427.77669139 0.09931938 433.80358749 0.10237717 439.83049583 0.10111618 C445.35151225 0.10001705 450.8725058 0.10356444 456.39351746 0.1107647 C458.38646724 0.11257015 460.3794194 0.11271606 462.37236927 0.11099742 C499.676324 0.08239936 499.676324 0.08239936 513.90299988 12.24723816 C523.05264613 21.75569407 524.05834128 34.44720497 524.02884102 46.93228149 C524.03029446 48.0024798 524.0317479 49.07267812 524.03324538 50.17530668 C524.03690497 53.77408647 524.03341902 57.37282389 524.02998352 60.97160339 C524.03113539 63.57322302 524.03272336 66.17484248 524.03471076 68.7764616 C524.03832302 74.44016632 524.03821252 80.10386152 524.0356636 85.76756668 C524.03188291 94.19137007 524.03381417 102.61516541 524.03687191 111.03896874 C524.04214245 126.09250012 524.04167882 141.14602725 524.038793 156.19955903 C524.03627631 169.39321742 524.03562123 182.58687426 524.03681564 195.78053284 C524.03693022 197.0938961 524.03693022 197.0938961 524.03704711 198.43379196 C524.03735847 201.98849294 524.03767688 205.54319391 524.03800688 209.09789489 C524.04106815 242.47226815 524.03829037 275.84663872 524.03290998 309.22101156 C524.02817744 338.80104428 524.02857755 368.38107268 524.03337097 397.96110535 C524.03874364 431.22657748 524.04083777 464.49204722 524.03775871 497.75751972 C524.03743803 501.31562614 524.03712519 504.87373257 524.03681564 508.43183899 C524.03673657 509.3078677 524.03665749 510.1838964 524.03657601 511.08647143 C524.03544463 524.24202023 524.03675766 537.39756729 524.0392952 550.55311584 C524.04217468 565.55583374 524.04139773 580.55854674 524.03601445 595.56126404 C524.03336244 603.20140218 524.0322276 610.84153233 524.0356636 618.48167038 C524.04248859 635.30802064 524.02011156 652.13379385 523.92115241 668.95992708 C523.90353368 672.15057069 523.89111901 675.34120218 523.87930822 678.5318718 C523.85879419 683.20313588 523.81190607 687.87333005 523.74068938 692.54409063 C523.71901411 694.17045215 523.70516361 695.79694277 523.70032479 697.42344153 C523.65672906 708.78638799 521.91176603 717.70455426 513.90299988 726.24723816 C512.91299988 726.90723816 511.92299988 727.56723816 510.90299988 728.24723816 C510.13987488 728.90208191 509.37674988 729.55692566 508.59049988 730.23161316 C500.3191222 736.43514641 489.85162302 736.83340908 479.90299988 736.24723816 C479.90299988 735.91723816 479.90299988 735.58723816 479.90299988 735.24723816 C478.25299988 735.24723816 476.60299988 735.24723816 474.90299988 735.24723816 C474.90299988 735.57723816 474.90299988 735.90723816 474.90299988 736.24723816 C451.14299988 736.24723816 427.38299988 736.24723816 402.90299988 736.24723816 C402.90299988 735.91723816 402.90299988 735.58723816 402.90299988 735.24723816 C401.95331581 735.31810859 401.00363174 735.38897902 400.02516937 735.46199703 C389.73918722 736.19021339 379.51439177 736.38512015 369.20573425 736.36076355 C367.49896242 736.36048063 365.79219046 736.36064146 364.0854187 736.36120605 C359.50592276 736.36148994 354.92645365 736.35566005 350.34696388 736.3486321 C345.54105902 736.34232977 340.73515336 736.34178937 335.929245 736.34060669 C326.85265957 736.33751348 317.77608636 736.32932751 308.69950628 736.3192572 C298.3559238 736.30803322 288.01234069 736.30256986 277.66875362 736.29756176 C256.41349559 736.28714296 235.15824851 736.26958292 213.90299988 736.24723816 C213.90299988 735.91723816 213.90299988 735.58723816 213.90299988 735.24723816 C209.61299988 735.24723816 205.32299988 735.24723816 200.90299988 735.24723816 C200.90299988 735.57723816 200.90299988 735.90723816 200.90299988 736.24723816 C197.31968362 736.276309 193.73639779 736.29406079 190.15299988 736.30973816 C189.13721863 736.31811707 188.12143738 736.32649597 187.07487488 736.33512878 C186.09518738 736.33835144 185.11549988 736.3415741 184.10612488 736.34489441 C183.20539246 736.35013123 182.30466003 736.35536804 181.37663269 736.36076355 C179.06910184 736.25486128 177.11165583 735.89856629 174.90299988 735.24723816 C174.90299988 735.57723816 174.90299988 735.90723816 174.90299988 736.24723816 C149.8080099 736.27058102 124.71302156 736.28822417 99.61802292 736.29905033 C87.96642952 736.30421033 76.31484286 736.31124742 64.66325378 736.32267761 C54.50974055 736.33263346 44.35623219 736.33909374 34.2027142 736.34132665 C28.8247144 736.34263222 23.44672855 736.34570841 18.06873322 736.35296822 C13.00945333 736.35974261 7.95019319 736.36185221 2.89090919 736.36034584 C1.03169714 736.36062153 -0.82751557 736.36261824 -2.68672371 736.36644363 C-5.22082549 736.371403 -7.75485225 736.37022809 -10.28895569 736.36749268 C-11.02825734 736.37040552 -11.767559 736.37331836 -12.52926373 736.37631947 C-15.86166333 736.36656588 -18.91107765 736.28494915 -22.09700012 735.24723816 C-22.09700012 735.57723816 -22.09700012 735.90723816 -22.09700012 736.24723816 C-30.89235172 736.05335265 -38.05435538 733.71235219 -46.09700012 730.24723816 C-46.09700012 729.58723816 -46.09700012 728.92723816 -46.09700012 728.24723816 C-46.83950012 728.14411316 -47.58200012 728.04098816 -48.34700012 727.93473816 C-51.29435202 727.19790018 -52.88083086 726.29924674 -55.09700012 724.24723816 C-55.09700012 723.58723816 -55.09700012 722.92723816 -55.09700012 722.24723816 C-55.75700012 722.24723816 -56.41700012 722.24723816 -57.09700012 722.24723816 C-66.5143524 714.13785148 -73.09357767 701.61958002 -74.41120911 689.31240845 C-75.36105952 675.69003761 -75.20894723 662.05484847 -75.16546249 648.4070847 C-75.15536682 644.80949155 -75.15194919 641.21189259 -75.14802551 637.61428833 C-75.13701704 628.51275735 -75.11740905 619.41125215 -75.09700012 610.30973816 C-75.07493334 600.42812396 -75.0544299 590.5465193 -75.04358196 580.66488546 C-75.03859647 576.38835035 -75.02873601 572.11186241 -75.01515198 567.83534634 C-75.00598273 564.57038682 -75.00318135 561.30542054 -74.99934387 558.04045105 C-74.99417755 556.85358704 -74.98901123 555.66672302 -74.98368835 554.44389343 C-74.98358261 552.83575523 -74.98358261 552.83575523 -74.98347473 551.19512939 C-74.98125412 550.25816758 -74.97903351 549.32120577 -74.97674561 548.35585117 C-74.86151423 546.26082449 -74.86151423 546.26082449 -76.09700012 545.24723816 C-76.11600194 542.40269031 -76.06878377 539.58422069 -75.98057556 536.74221802 C-75.932064 534.85708893 -75.88386265 532.97195185 -75.83592033 531.0868082 C-75.7946293 529.55901051 -75.7946293 529.55901051 -75.75250411 528.00034821 C-75.19869593 507.03568283 -74.98541351 486.07627444 -74.96760559 465.10490417 C-74.9669519 464.42458564 -74.96629822 463.74426711 -74.96562472 463.04333286 C-74.95770995 454.44182446 -74.95783785 445.84032701 -74.96170162 437.23881656 C-74.96401492 431.93166022 -74.96425646 426.62450709 -74.96318436 421.31735039 C-74.96303112 420.55024105 -74.96287789 419.78313172 -74.96272001 418.99277664 C-74.9624002 417.43302028 -74.96207598 415.87326391 -74.96174742 414.31350755 C-74.95893302 399.88101498 -74.96211975 385.4485289 -74.96754779 371.0160374 C-74.972055 358.64673071 -74.97120031 346.27743337 -74.96662903 333.90812683 C-74.96128429 319.43967074 -74.95916309 304.97122015 -74.96224129 290.50276321 C-74.96255979 288.96443713 -74.96287416 287.42611104 -74.96318436 285.88778496 C-74.96333863 285.13133401 -74.96349291 284.37488307 -74.96365186 283.59550937 C-74.96451416 278.27389253 -74.96306122 272.95227921 -74.9607048 267.63066292 C-74.95790969 261.17934492 -74.95864072 254.72803909 -74.96398555 248.2767225 C-74.96661987 244.98911853 -74.96709643 241.70153921 -74.9643364 238.41393471 C-74.96162544 234.85924878 -74.9650047 231.30462112 -74.97001648 227.74993896 C-74.96778576 226.70361394 -74.96555504 225.65728891 -74.96325672 224.57925707 C-74.96586446 223.63362585 -74.96847221 222.68799463 -74.97115898 221.71370792 C-74.97132133 220.89349315 -74.97148369 220.07327837 -74.97165096 219.2282086 C-74.97258675 217.17120026 -74.97258675 217.17120026 -76.09700012 215.24723816 C-76.19466487 213.19830545 -76.22777316 211.14615243 -76.22981262 209.09489441 C-76.23110168 207.84257019 -76.23239075 206.59024597 -76.23371887 205.29997253 C-76.22985168 203.98319519 -76.2259845 202.66641785 -76.22200012 201.30973816 C-76.22586731 200.0277655 -76.2297345 198.74579285 -76.23371887 197.42497253 C-76.23242981 196.16104675 -76.23114075 194.89712097 -76.22981262 193.59489441 C-76.22868469 192.45028748 -76.22755676 191.30568054 -76.22639465 190.12638855 C-76.12694229 187.14488174 -75.90605385 184.28314826 -75.59303284 181.32351685 C-75.00139578 174.92131198 -74.98538296 168.57268594 -75.03108215 162.14762878 C-75.03825497 160.21099111 -75.0454237 158.27435341 -75.0524385 156.33771515 C-75.06078221 154.27838334 -75.07157884 152.21907661 -75.08296585 150.15975952 C-75.10625203 145.84603747 -75.11939776 141.53231973 -75.13066101 137.21855164 C-75.16391305 124.95966082 -75.20567331 112.7008403 -75.26838684 100.44206238 C-75.30302769 93.65410267 -75.32675759 86.8661938 -75.33859527 80.07815504 C-75.34663828 75.80009575 -75.36774309 71.52237372 -75.39880013 67.24442291 C-75.41872208 63.94523367 -75.41865226 60.64609433 -75.42170715 57.34684753 C-75.43406403 56.17873032 -75.4464209 55.0106131 -75.45915222 53.80709839 C-75.4334386 43.23420968 -73.16112707 34.50236672 -68.09700012 25.24723816 C-67.43700012 25.24723816 -66.77700012 25.24723816 -66.09700012 25.24723816 C-66.01450012 24.66973816 -65.93200012 24.09223816 -65.84700012 23.49723816 C-64.86489095 20.55091065 -63.47424946 19.21695904 -61.09700012 17.24723816 C-58.84700012 16.49723816 -58.84700012 16.49723816 -57.09700012 16.24723816 C-57.00418762 15.38098816 -57.00418762 15.38098816 -56.90950012 14.49723816 C-54.93531787 9.03027191 -47.82097214 6.0304031 -42.84076184 3.66424114 C-38.98748327 2.06724644 -35.12050976 1.48534712 -30.98978138 1.08300304 C-29.82020254 0.96251 -29.82020254 0.96251 -28.62699585 0.83958275 C-19.09471254 -0.05625561 -9.56548394 -0.02694429 0 0 Z " fill="#2B6047" transform="translate(310.0970001220703,304.7527618408203)"/>
<path d="M0 0 C2.0727958 -0.00159189 4.14559107 -0.00405923 6.21838492 -0.00731641 C11.86483287 -0.01367855 17.51120819 -0.00770194 23.15765131 0.00044787 C29.26602733 0.0070651 35.37439575 0.00206773 41.48277283 -0.00143433 C52.05250647 -0.00588128 62.62222005 -0.00302379 73.19194984 0.00521278 C84.27722686 0.01384895 95.36249436 0.01873243 106.44777489 0.01854515 C107.13921069 0.01853751 107.83064649 0.01852986 108.54303489 0.01852198 C111.35018569 0.01848107 114.15733649 0.01841545 116.96448729 0.01831617 C143.25831581 0.01741157 169.55212988 0.0273331 195.8459534 0.04274584 C219.18422555 0.05637569 242.52248745 0.06260672 265.86076355 0.06193542 C267.36016307 0.06189501 268.85956258 0.06185465 270.3589621 0.06181435 C271.47089979 0.06178382 271.47089979 0.06178382 272.60530087 0.06175268 C276.33721572 0.06165187 280.06913057 0.06156129 283.80104542 0.06148243 C284.90553099 0.06145736 284.90553099 0.06145736 286.0323294 0.06143178 C305.5636887 0.06106633 325.09504671 0.06560813 344.62640494 0.07180899 C345.66898004 0.0721394 345.66898004 0.0721394 346.73261727 0.07247648 C349.52725505 0.07336465 352.32189284 0.07425307 355.11653062 0.07516744 C364.82187016 0.0783218 374.52720869 0.07983597 384.2325487 0.08027893 C396.73829763 0.08087694 409.24403906 0.08500207 421.74978492 0.09471039 C427.77669139 0.09931938 433.80358749 0.10237717 439.83049583 0.10111618 C445.35151225 0.10001705 450.8725058 0.10356444 456.39351746 0.1107647 C458.38646724 0.11257015 460.3794194 0.11271606 462.37236927 0.11099742 C499.676324 0.08239936 499.676324 0.08239936 513.90299988 12.24723816 C523.05264613 21.75569407 524.05834128 34.44720497 524.02884102 46.93228149 C524.03029446 48.0024798 524.0317479 49.07267812 524.03324538 50.17530668 C524.03690497 53.77408647 524.03341902 57.37282389 524.02998352 60.97160339 C524.03113539 63.57322302 524.03272336 66.17484248 524.03471076 68.7764616 C524.03832302 74.44016632 524.03821252 80.10386152 524.0356636 85.76756668 C524.03188291 94.19137007 524.03381417 102.61516541 524.03687191 111.03896874 C524.04214245 126.09250012 524.04167882 141.14602725 524.038793 156.19955903 C524.03627631 169.39321742 524.03562123 182.58687426 524.03681564 195.78053284 C524.03693022 197.0938961 524.03693022 197.0938961 524.03704711 198.43379196 C524.03735847 201.98849294 524.03767688 205.54319391 524.03800688 209.09789489 C524.04106815 242.47226815 524.03829037 275.84663872 524.03290998 309.22101156 C524.02817744 338.80104428 524.02857755 368.38107268 524.03337097 397.96110535 C524.03874364 431.22657748 524.04083777 464.49204722 524.03775871 497.75751972 C524.03743803 501.31562614 524.03712519 504.87373257 524.03681564 508.43183899 C524.03673657 509.3078677 524.03665749 510.1838964 524.03657601 511.08647143 C524.03544463 524.24202023 524.03675766 537.39756729 524.0392952 550.55311584 C524.04217468 565.55583374 524.04139773 580.55854674 524.03601445 595.56126404 C524.03336244 603.20140218 524.0322276 610.84153233 524.0356636 618.48167038 C524.04248859 635.30802064 524.02011156 652.13379385 523.92115241 668.95992708 C523.90353368 672.15057069 523.89111901 675.34120218 523.87930822 678.5318718 C523.85879419 683.20313588 523.81190607 687.87333005 523.74068938 692.54409063 C523.71901411 694.17045215 523.70516361 695.79694277 523.70032479 697.42344153 C523.65672906 708.78638799 521.91176603 717.70455426 513.90299988 726.24723816 C512.91299988 726.90723816 511.92299988 727.56723816 510.90299988 728.24723816 C510.13987488 728.90208191 509.37674988 729.55692566 508.59049988 730.23161316 C500.3191222 736.43514641 489.85162302 736.83340908 479.90299988 736.24723816 C479.90299988 735.91723816 479.90299988 735.58723816 479.90299988 735.24723816 C478.25299988 735.24723816 476.60299988 735.24723816 474.90299988 735.24723816 C474.90299988 735.57723816 474.90299988 735.90723816 474.90299988 736.24723816 C451.14299988 736.24723816 427.38299988 736.24723816 402.90299988 736.24723816 C402.90299988 735.91723816 402.90299988 735.58723816 402.90299988 735.24723816 C401.95331581 735.31810859 401.00363174 735.38897902 400.02516937 735.46199703 C389.73918722 736.19021339 379.51439177 736.38512015 369.20573425 736.36076355 C367.49896242 736.36048063 365.79219046 736.36064146 364.0854187 736.36120605 C359.50592276 736.36148994 354.92645365 736.35566005 350.34696388 736.3486321 C345.54105902 736.34232977 340.73515336 736.34178937 335.929245 736.34060669 C326.85265957 736.33751348 317.77608636 736.32932751 308.69950628 736.3192572 C298.3559238 736.30803322 288.01234069 736.30256986 277.66875362 736.29756176 C256.41349559 736.28714296 235.15824851 736.26958292 213.90299988 736.24723816 C213.90299988 735.91723816 213.90299988 735.58723816 213.90299988 735.24723816 C209.61299988 735.24723816 205.32299988 735.24723816 200.90299988 735.24723816 C200.90299988 735.57723816 200.90299988 735.90723816 200.90299988 736.24723816 C197.31968362 736.276309 193.73639779 736.29406079 190.15299988 736.30973816 C189.13721863 736.31811707 188.12143738 736.32649597 187.07487488 736.33512878 C186.09518738 736.33835144 185.11549988 736.3415741 184.10612488 736.34489441 C183.20539246 736.35013123 182.30466003 736.35536804 181.37663269 736.36076355 C179.06910184 736.25486128 177.11165583 735.89856629 174.90299988 735.24723816 C174.90299988 735.57723816 174.90299988 735.90723816 174.90299988 736.24723816 C149.8080099 736.27058102 124.71302156 736.28822417 99.61802292 736.29905033 C87.96642952 736.30421033 76.31484286 736.31124742 64.66325378 736.32267761 C54.50974055 736.33263346 44.35623219 736.33909374 34.2027142 736.34132665 C28.8247144 736.34263222 23.44672855 736.34570841 18.06873322 736.35296822 C13.00945333 736.35974261 7.95019319 736.36185221 2.89090919 736.36034584 C1.03169714 736.36062153 -0.82751557 736.36261824 -2.68672371 736.36644363 C-5.22082549 736.371403 -7.75485225 736.37022809 -10.28895569 736.36749268 C-11.02825734 736.37040552 -11.767559 736.37331836 -12.52926373 736.37631947 C-15.86166333 736.36656588 -18.91107765 736.28494915 -22.09700012 735.24723816 C-22.09700012 735.57723816 -22.09700012 735.90723816 -22.09700012 736.24723816 C-30.89235172 736.05335265 -38.05435538 733.71235219 -46.09700012 730.24723816 C-46.09700012 729.58723816 -46.09700012 728.92723816 -46.09700012 728.24723816 C-46.83950012 728.14411316 -47.58200012 728.04098816 -48.34700012 727.93473816 C-51.29435202 727.19790018 -52.88083086 726.29924674 -55.09700012 724.24723816 C-55.09700012 723.58723816 -55.09700012 722.92723816 -55.09700012 722.24723816 C-55.75700012 722.24723816 -56.41700012 722.24723816 -57.09700012 722.24723816 C-66.5143524 714.13785148 -73.09357767 701.61958002 -74.41120911 689.31240845 C-75.36105952 675.69003761 -75.20894723 662.05484847 -75.16546249 648.4070847 C-75.15536682 644.80949155 -75.15194919 641.21189259 -75.14802551 637.61428833 C-75.13701704 628.51275735 -75.11740905 619.41125215 -75.09700012 610.30973816 C-75.07493334 600.42812396 -75.0544299 590.5465193 -75.04358196 580.66488546 C-75.03859647 576.38835035 -75.02873601 572.11186241 -75.01515198 567.83534634 C-75.00598273 564.57038682 -75.00318135 561.30542054 -74.99934387 558.04045105 C-74.99417755 556.85358704 -74.98901123 555.66672302 -74.98368835 554.44389343 C-74.98358261 552.83575523 -74.98358261 552.83575523 -74.98347473 551.19512939 C-74.98125412 550.25816758 -74.97903351 549.32120577 -74.97674561 548.35585117 C-74.86151423 546.26082449 -74.86151423 546.26082449 -76.09700012 545.24723816 C-76.11600194 542.40269031 -76.06878377 539.58422069 -75.98057556 536.74221802 C-75.932064 534.85708893 -75.88386265 532.97195185 -75.83592033 531.0868082 C-75.7946293 529.55901051 -75.7946293 529.55901051 -75.75250411 528.00034821 C-75.19869593 507.03568283 -74.98541351 486.07627444 -74.96760559 465.10490417 C-74.9669519 464.42458564 -74.96629822 463.74426711 -74.96562472 463.04333286 C-74.95770995 454.44182446 -74.95783785 445.84032701 -74.96170162 437.23881656 C-74.96401492 431.93166022 -74.96425646 426.62450709 -74.96318436 421.31735039 C-74.96303112 420.55024105 -74.96287789 419.78313172 -74.96272001 418.99277664 C-74.9624002 417.43302028 -74.96207598 415.87326391 -74.96174742 414.31350755 C-74.95893302 399.88101498 -74.96211975 385.4485289 -74.96754779 371.0160374 C-74.972055 358.64673071 -74.97120031 346.27743337 -74.96662903 333.90812683 C-74.96128429 319.43967074 -74.95916309 304.97122015 -74.96224129 290.50276321 C-74.96255979 288.96443713 -74.96287416 287.42611104 -74.96318436 285.88778496 C-74.96333863 285.13133401 -74.96349291 284.37488307 -74.96365186 283.59550937 C-74.96451416 278.27389253 -74.96306122 272.95227921 -74.9607048 267.63066292 C-74.95790969 261.17934492 -74.95864072 254.72803909 -74.96398555 248.2767225 C-74.96661987 244.98911853 -74.96709643 241.70153921 -74.9643364 238.41393471 C-74.96162544 234.85924878 -74.9650047 231.30462112 -74.97001648 227.74993896 C-74.96778576 226.70361394 -74.96555504 225.65728891 -74.96325672 224.57925707 C-74.96586446 223.63362585 -74.96847221 222.68799463 -74.97115898 221.71370792 C-74.97132133 220.89349315 -74.97148369 220.07327837 -74.97165096 219.2282086 C-74.97258675 217.17120026 -74.97258675 217.17120026 -76.09700012 215.24723816 C-76.19466487 213.19830545 -76.22777316 211.14615243 -76.22981262 209.09489441 C-76.23110168 207.84257019 -76.23239075 206.59024597 -76.23371887 205.29997253 C-76.22985168 203.98319519 -76.2259845 202.66641785 -76.22200012 201.30973816 C-76.22586731 200.0277655 -76.2297345 198.74579285 -76.23371887 197.42497253 C-76.23242981 196.16104675 -76.23114075 194.89712097 -76.22981262 193.59489441 C-76.22868469 192.45028748 -76.22755676 191.30568054 -76.22639465 190.12638855 C-76.12694229 187.14488174 -75.90605385 184.28314826 -75.59303284 181.32351685 C-75.00139578 174.92131198 -74.98538296 168.57268594 -75.03108215 162.14762878 C-75.03825497 160.21099111 -75.0454237 158.27435341 -75.0524385 156.33771515 C-75.06078221 154.27838334 -75.07157884 152.21907661 -75.08296585 150.15975952 C-75.10625203 145.84603747 -75.11939776 141.53231973 -75.13066101 137.21855164 C-75.16391305 124.95966082 -75.20567331 112.7008403 -75.26838684 100.44206238 C-75.30302769 93.65410267 -75.32675759 86.8661938 -75.33859527 80.07815504 C-75.34663828 75.80009575 -75.36774309 71.52237372 -75.39880013 67.24442291 C-75.41872208 63.94523367 -75.41865226 60.64609433 -75.42170715 57.34684753 C-75.43406403 56.17873032 -75.4464209 55.0106131 -75.45915222 53.80709839 C-75.4334386 43.23420968 -73.16112707 34.50236672 -68.09700012 25.24723816 C-67.43700012 25.24723816 -66.77700012 25.24723816 -66.09700012 25.24723816 C-66.01450012 24.66973816 -65.93200012 24.09223816 -65.84700012 23.49723816 C-64.86489095 20.55091065 -63.47424946 19.21695904 -61.09700012 17.24723816 C-58.84700012 16.49723816 -58.84700012 16.49723816 -57.09700012 16.24723816 C-57.00418762 15.38098816 -57.00418762 15.38098816 -56.90950012 14.49723816 C-54.93531787 9.03027191 -47.82097214 6.0304031 -42.84076184 3.66424114 C-38.98748327 2.06724644 -35.12050976 1.48534712 -30.98978138 1.08300304 C-29.82020254 0.96251 -29.82020254 0.96251 -28.62699585 0.83958275 C-19.09471254 -0.05625561 -9.56548394 -0.02694429 0 0 Z M76.90299988 46.24723816 C73.90452827 53.74316197 73.90452827 53.74316197 71.27799988 61.37223816 C67.81424327 70.05890336 58.61464284 74.67737566 50.90299988 79.24723816 C50.57299988 78.91723816 50.24299988 78.58723816 49.90299988 78.24723816 C47.57002555 78.20630878 45.23594763 78.20482093 42.90299988 78.24723816 C42.885889 123.98072728 42.86996742 169.7142167 42.86065674 215.44770813 C42.86051868 216.12410604 42.86038062 216.80050394 42.86023838 217.49739875 C42.85724578 232.19579821 42.85447556 246.8941977 42.85193455 261.59259724 C42.85068716 268.80023146 42.84939062 276.00786567 42.84806824 283.21549988 C42.84793748 283.93276285 42.84780672 284.65002583 42.847672 285.38902404 C42.84340732 308.65591431 42.83589353 331.92280215 42.82670266 355.18969095 C42.81727839 379.09070593 42.81111637 402.99171956 42.80908489 426.89273637 C42.80879671 430.26519771 42.80847108 433.63765905 42.80812263 437.01012039 C42.80805521 437.67389778 42.80798779 438.33767516 42.80791832 439.02156701 C42.806808 449.06162478 42.80281156 459.10167885 42.79726982 469.14173508 C42.79099279 480.55506969 42.78802436 491.96839883 42.7894985 503.38173519 C42.79014193 509.21070472 42.78912383 515.03966207 42.7837944 520.86862946 C42.77895822 526.19672494 42.7786627 531.52479995 42.78210098 536.85289635 C42.78252646 538.78831658 42.78123257 540.72373806 42.7781167 542.65915583 C42.77414857 545.27439772 42.77623914 547.88956407 42.77995205 550.50480461 C42.77732504 551.2696364 42.77469802 552.03446818 42.7719914 552.82247669 C42.71494724 556.66176889 42.71494724 556.66176889 43.90299988 560.24723816 C46.93234478 560.90496244 46.93234478 560.90496244 49.90299988 561.24723816 C49.90299988 560.58723816 49.90299988 559.92723816 49.90299988 559.24723816 C50.56299988 559.24723816 51.22299988 559.24723816 51.90299988 559.24723816 C52.39799988 560.73223816 52.39799988 560.73223816 52.90299988 562.24723816 C54.71022197 563.01422978 54.71022197 563.01422978 56.84049988 563.37223816 C59.09073136 563.83780329 60.84033507 564.21590575 62.90299988 565.24723816 C63.93313265 566.8954506 64.92365064 568.56835375 65.90299988 570.24723816 C66.58942566 571.21016785 66.58942566 571.21016785 67.28971863 572.19255066 C70.8793593 577.23793982 73.15223858 582.06394307 75.04362488 587.96208191 C75.78121178 590.4007503 75.78121178 590.4007503 77.90299988 592.24723816 C80.58783867 592.54932005 80.58783867 592.54932005 83.78696632 592.49333382 C85.67919817 592.49930696 85.67919817 592.49930696 87.60965693 592.50540078 C89.02259367 592.49969394 90.43552968 592.49380273 91.84846497 592.48774719 C93.33924475 592.48861858 94.83002424 592.49036834 96.32080209 592.49292552 C100.43229039 592.49741612 104.5436753 592.489372 108.65515041 592.4793694 C113.08324121 592.47076174 117.5113258 592.47365315 121.93942261 592.47517395 C129.61635859 592.47622451 137.29326068 592.46993011 144.97018814 592.45869827 C156.06983954 592.44246931 167.16947449 592.43723794 178.26913647 592.43472229 C196.27600649 592.43034109 214.28285843 592.41702047 232.28971863 592.39811707 C249.78548593 592.37976925 267.28124834 592.36560738 284.77702332 592.35710144 C285.85480327 592.35657599 286.93258323 592.35605055 288.04302318 592.35550918 C293.44973161 592.35289917 298.85644006 592.35037174 304.26314855 592.34788537 C349.14311152 592.32713964 394.02305477 592.29190256 438.90299988 592.24723816 C438.90299988 590.59723816 438.90299988 588.94723816 438.90299988 587.24723816 C439.56299988 587.24723816 440.22299988 587.24723816 440.90299988 587.24723816 C443.27413471 582.28439782 445.33474335 577.78773929 445.90299988 572.24723816 C446.80018738 572.09255066 446.80018738 572.09255066 447.71549988 571.93473816 C450.2372134 571.14219962 451.29985687 570.33132407 452.90299988 568.24723816 C452.90299988 567.25723816 452.90299988 566.26723816 452.90299988 565.24723816 C453.95100769 564.9571991 453.95100769 564.9571991 455.02018738 564.66130066 C455.9302655 564.40091003 456.84034363 564.14051941 457.77799988 563.87223816 C459.13538269 563.4893866 459.13538269 563.4893866 460.52018738 563.09880066 C463.04869714 562.38680666 463.04869714 562.38680666 464.90299988 560.24723816 C465.89299988 560.57723816 466.88299988 560.90723816 467.90299988 561.24723816 C468.56299988 560.91723816 469.22299988 560.58723816 469.90299988 560.24723816 C469.90299988 559.58723816 469.90299988 558.92723816 469.90299988 558.24723816 C470.56299988 558.24723816 471.22299988 558.24723816 471.90299988 558.24723816 C471.98855996 512.81389568 472.06816714 467.38054461 472.11471558 421.94714355 C472.11540586 421.27511292 472.11609615 420.60308228 472.11680735 419.91068708 C472.13177059 405.30695612 472.14562169 390.70322431 472.15832653 376.09949122 C472.16456341 368.93820941 472.17104615 361.77692783 472.17765808 354.61564636 C472.17831188 353.90299867 472.17896567 353.19035099 472.17963928 352.45610792 C472.20096015 329.34168151 472.23852719 306.22731607 472.28448598 283.11292663 C472.33161443 259.36724291 472.36241906 235.62159295 472.37257483 211.87586324 C472.37915646 196.56865273 472.40020108 181.26161441 472.44258221 165.95446227 C472.46892711 155.93120585 472.47701965 145.90804044 472.47050676 135.88475188 C472.467291 130.09402309 472.47236383 124.30360094 472.49902725 118.5129261 C472.52322867 113.21854521 472.52467322 107.92467928 472.50749435 102.63027547 C472.50536893 100.70828641 472.51182213 98.78626616 472.52741579 96.8643392 C472.5472966 94.26420664 472.53678533 91.66596685 472.51823902 89.06586742 C472.53137409 88.30847569 472.54450916 87.55108396 472.55804226 86.77074096 C472.5766511 84.44050114 472.5766511 84.44050114 471.90299988 81.24723816 C468.99669014 78.79255059 467.38230721 78.29245583 463.59049988 77.93473816 C455.96220886 76.51251441 450.29350595 70.40178685 445.90299988 64.24723816 C442.18585173 58.39028433 441.31357384 53.30010796 439.90299988 46.24723816 C320.11299988 46.24723816 200.32299988 46.24723816 76.90299988 46.24723816 Z " fill="#2C6148" transform="translate(310.0970001220703,304.7527618408203)"/>
<path d="M0 0 C6.27 0 12.54 0 19 0 C19 205.92 19 411.84 19 624 C189.94 624 360.88 624 537 624 C537 715.4 537 715.4 528 725 C527.01 725.66 526.02 726.32 525 727 C524.236875 727.65484375 523.47375 728.3096875 522.6875 728.984375 C514.41612233 735.18790826 503.94862314 735.58617092 494 735 C494 734.67 494 734.34 494 734 C492.35 734 490.7 734 489 734 C489 734.33 489 734.66 489 735 C465.24 735 441.48 735 417 735 C417 734.67 417 734.34 417 734 C416.05031593 734.07087043 415.10063187 734.14174086 414.12216949 734.21475887 C403.83618734 734.94297523 393.61139189 735.13788199 383.30273438 735.11352539 C381.59596254 735.11324247 379.88919059 735.1134033 378.18241882 735.1139679 C373.60292288 735.11425178 369.02345378 735.10842189 364.443964 735.10139394 C359.63805914 735.09509161 354.83215348 735.09455121 350.02624512 735.09336853 C340.94965969 735.09027532 331.87308648 735.08208935 322.7965064 735.07201904 C312.45292392 735.06079506 302.10934082 735.0553317 291.76575375 735.05032361 C270.51049571 735.0399048 249.25524863 735.02234476 228 735 C228 734.67 228 734.34 228 734 C223.71 734 219.42 734 215 734 C215 734.33 215 734.66 215 735 C211.41668375 735.02907084 207.83339792 735.04682263 204.25 735.0625 C203.23421875 735.07087891 202.2184375 735.07925781 201.171875 735.08789062 C200.1921875 735.09111328 199.2125 735.09433594 198.203125 735.09765625 C197.30239258 735.10289307 196.40166016 735.10812988 195.47363281 735.11352539 C193.16610196 735.00762312 191.20865595 734.65132813 189 734 C189 734.33 189 734.66 189 735 C163.90501003 735.02334286 138.81002168 735.04098602 113.71502304 735.05181217 C102.06342964 735.05697217 90.41184298 735.06400926 78.76025391 735.07543945 C68.60674067 735.0853953 58.45323231 735.09185559 48.29971433 735.09408849 C42.92171452 735.09539406 37.54372868 735.09847025 32.16573334 735.10573006 C27.10645345 735.11250446 22.04719331 735.11461405 16.98790932 735.11310768 C15.12869726 735.11338337 13.26948456 735.11538008 11.41027641 735.11920547 C8.87617463 735.12416484 6.34214787 735.12298993 3.80804443 735.12025452 C3.06874278 735.12316736 2.32944112 735.1260802 1.56773639 735.12908131 C-1.76466321 735.11932772 -4.81407753 735.03771099 -8 734 C-8 734.33 -8 734.66 -8 735 C-16.7953516 734.80611449 -23.95735526 732.46511403 -32 729 C-32 728.34 -32 727.68 -32 727 C-32.7425 726.896875 -33.485 726.79375 -34.25 726.6875 C-37.1973519 725.95066203 -38.78383074 725.05200858 -41 723 C-41 722.34 -41 721.68 -41 721 C-41.66 721 -42.32 721 -43 721 C-52.41735227 712.89061332 -58.99657755 700.37234186 -60.31420898 688.06517029 C-61.2640594 674.44279945 -61.11194711 660.80761031 -61.06846237 647.15984654 C-61.05836669 643.5622534 -61.05494907 639.96465443 -61.05102539 636.36705017 C-61.04001691 627.26551919 -61.02040893 618.16401399 -61 609.0625 C-60.97793322 599.1808858 -60.95742978 589.29928114 -60.94658184 579.4176473 C-60.94159634 575.14111219 -60.93173589 570.86462425 -60.91815186 566.58810818 C-60.9089826 563.32314866 -60.90618123 560.05818238 -60.90234375 556.79321289 C-60.89717743 555.60634888 -60.89201111 554.41948486 -60.88668823 553.19665527 C-60.88658249 551.58851707 -60.88658249 551.58851707 -60.88647461 549.94789124 C-60.884254 549.01092942 -60.88203339 548.07396761 -60.87974548 547.10861301 C-60.76451411 545.01358633 -60.76451411 545.01358633 -62 544 C-62.01900182 541.15545215 -61.97178365 538.33698253 -61.88357544 535.49497986 C-61.83506388 533.60985078 -61.78686253 531.72471369 -61.73892021 529.83957005 C-61.69762918 528.31177235 -61.69762918 528.31177235 -61.65550399 526.75311005 C-61.10169581 505.78844468 -60.88841339 484.82903628 -60.87060547 463.85766602 C-60.86995178 463.17734748 -60.86929809 462.49702895 -60.8686246 461.7960947 C-60.86070983 453.1945863 -60.86083773 444.59308885 -60.8647015 435.9915784 C-60.8670148 430.68442206 -60.86725633 425.37726893 -60.86618423 420.07011223 C-60.866031 419.30300289 -60.86587777 418.53589356 -60.86571989 417.74553848 C-60.86540007 416.18578212 -60.86507586 414.62602575 -60.8647473 413.06626939 C-60.8619329 398.63377683 -60.86511962 384.20129074 -60.87054767 369.76879924 C-60.87505487 357.39949255 -60.87420018 345.03019521 -60.86962891 332.66088867 C-60.86428416 318.19243258 -60.86216297 303.723982 -60.86524117 289.25552505 C-60.86555966 287.71719897 -60.86587404 286.17887288 -60.86618423 284.6405468 C-60.86633851 283.88409585 -60.86649279 283.12764491 -60.86665174 282.34827121 C-60.86751404 277.02665437 -60.8660611 271.70504106 -60.86370468 266.38342476 C-60.86090957 259.93210676 -60.8616406 253.48080093 -60.86698543 247.02948434 C-60.86961975 243.74188037 -60.8700963 240.45430105 -60.86733627 237.16669655 C-60.86462532 233.61201062 -60.86800458 230.05738296 -60.87301636 226.50270081 C-60.87078564 225.45637578 -60.86855491 224.41005076 -60.86625659 223.33201891 C-60.86886434 222.38638769 -60.87147209 221.44075647 -60.87415886 220.46646976 C-60.87432121 219.64625499 -60.87448356 218.82604021 -60.87465084 217.98097044 C-60.87558662 215.9239621 -60.87558662 215.9239621 -62 214 C-62.09766475 211.95106729 -62.13077304 209.89891427 -62.1328125 207.84765625 C-62.13410156 206.59533203 -62.13539063 205.34300781 -62.13671875 204.05273438 C-62.13285156 202.73595703 -62.12898437 201.41917969 -62.125 200.0625 C-62.12886719 198.78052734 -62.13273438 197.49855469 -62.13671875 196.17773438 C-62.13542969 194.91380859 -62.13414062 193.64988281 -62.1328125 192.34765625 C-62.13168457 191.20304932 -62.13055664 190.05844238 -62.12939453 188.87915039 C-62.02994217 185.89764358 -61.80905373 183.0359101 -61.49603271 180.07627869 C-60.90439566 173.67407382 -60.88838284 167.32544778 -60.93408203 160.90039062 C-60.94125485 158.96375295 -60.94842358 157.02711525 -60.95543838 155.09047699 C-60.96378209 153.03114519 -60.97457872 150.97183845 -60.98596573 148.91252136 C-61.00925191 144.59879931 -61.02239764 140.28508157 -61.03366089 135.97131348 C-61.06691293 123.71242266 -61.10867319 111.45360214 -61.17138672 99.19482422 C-61.20602757 92.40686451 -61.22975747 85.61895564 -61.24159515 78.83091688 C-61.24963816 74.5528576 -61.27074297 70.27513556 -61.30180001 65.99718475 C-61.32172196 62.69799551 -61.32165214 59.39885617 -61.32470703 56.09960938 C-61.3370639 54.93149216 -61.34942078 53.76337494 -61.3621521 52.55986023 C-61.33643848 41.98697152 -59.06412695 33.25512856 -54 24 C-53.34 24 -52.68 24 -52 24 C-51.9175 23.4225 -51.835 22.845 -51.75 22.25 C-50.76789083 19.30367249 -49.37724934 17.96972088 -47 16 C-44.75 15.25 -44.75 15.25 -43 15 C-42.9071875 14.13375 -42.9071875 14.13375 -42.8125 13.25 C-41.46278098 9.51231655 -38.61051807 7.7835854 -35.11328125 6.08203125 C-33.42390835 5.35213992 -31.71327454 4.67187237 -30 4 C-29.07704116 10.25278031 -28.85985737 16.32076812 -28.87695217 22.63591766 C-28.87579833 23.68856336 -28.87464448 24.74120905 -28.87345567 25.82575309 C-28.87080558 29.35842 -28.87529798 32.89104147 -28.87974548 36.42370605 C-28.87930945 38.97973723 -28.87843396 41.53576836 -28.87715632 44.09179926 C-28.87508536 49.65175296 -28.8767216 55.21169595 -28.88079453 60.77164841 C-28.88683395 69.03907095 -28.88712992 77.30648676 -28.88625254 85.57391111 C-28.88493909 99.48158304 -28.88827834 113.38925022 -28.89426994 127.29692078 C-28.90018711 141.06711348 -28.90403592 154.8373042 -28.90512276 168.60749817 C-28.9051915 169.46371056 -28.90526024 170.31992295 -28.90533106 171.20208118 C-28.90566939 175.55035726 -28.90597078 179.89863335 -28.90625793 184.24690944 C-28.9083583 215.04514149 -28.91509555 245.84337096 -28.92456055 276.64160156 C-28.93374501 306.5615233 -28.94082861 336.48144433 -28.94506836 366.40136719 C-28.94526565 367.7847787 -28.94526565 367.7847787 -28.94546692 369.19613793 C-28.94678544 378.45800212 -28.94806126 387.71986631 -28.94930578 396.98173051 C-28.95184199 415.84918919 -28.95466324 434.71664783 -28.95765686 453.58410645 C-28.9578628 454.8853472 -28.9578628 454.8853472 -28.95807289 456.21287564 C-28.96727344 514.14191818 -28.98313943 572.07095925 -29 630 C-28.16855469 629.72285156 -27.33710938 629.44570313 -26.48046875 629.16015625 C-17.08646134 626.02882045 -9.93572755 624.90884654 0 625 C-0.0712328 623.85061911 -0.1424656 622.70123823 -0.21585697 621.51702762 C-1.0278222 607.54534877 -1.12430171 593.618587 -1.08229065 579.62677002 C-1.0785887 577.1140053 -1.07534151 574.60123988 -1.07250541 572.08847404 C-1.06535055 566.66022731 -1.05503706 561.23200135 -1.04183006 555.80376625 C-1.02220994 547.73239921 -1.0086067 539.66102954 -0.99616829 531.58964863 C-0.97506974 518.00704522 -0.94919282 504.42445493 -0.92053413 490.84186554 C-0.8921995 477.40536104 -0.86602455 463.96885516 -0.84269524 450.532341 C-0.84124015 449.69497599 -0.83978506 448.85761099 -0.83828588 447.99487128 C-0.8309065 443.74182333 -0.82356534 439.48877532 -0.81623887 435.23572728 C-0.76435994 405.15958461 -0.70769718 375.08345269 -0.64819336 345.00732422 C-0.59041937 315.79997163 -0.53482954 286.5926162 -0.48217773 257.38525391 C-0.47973936 256.03334395 -0.47973936 256.03334395 -0.47725173 254.65412268 C-0.46092845 245.6026582 -0.44464937 236.55119363 -0.42840267 227.49972901 C-0.39530917 209.06303095 -0.36192077 190.62633343 -0.32835388 172.18963623 C-0.3268111 171.34206123 -0.32526832 170.49448623 -0.32367879 169.62122714 C-0.22072861 113.08080872 -0.11082583 56.54040346 0 0 Z " fill="#21513C" transform="translate(296,306)"/>
<path d="M0 0 C2.19411025 -0.00349311 4.38821722 -0.01050603 6.5823065 -0.02071333 C12.58254063 -0.03852879 18.58162371 -0.00670431 24.58171129 0.03351116 C31.06277838 0.06815508 37.54378393 0.05636109 44.0249176 0.05029297 C55.24423236 0.04472493 66.4631975 0.07086001 77.68241501 0.11619568 C89.44366605 0.16359938 101.20476816 0.19433677 112.96611404 0.20301819 C113.69852914 0.20356811 114.43094423 0.20411802 115.18555372 0.2046846 C118.90541192 0.20739142 122.62527025 0.20980244 126.34512873 0.21209961 C152.66448262 0.22888438 178.98364237 0.28273127 205.30288696 0.35852051 C230.86505097 0.43204447 256.42716177 0.48868952 281.9894104 0.52258301 C282.77792461 0.52363522 283.56643882 0.52468743 284.3788474 0.52577152 C292.29773089 0.53632006 300.2166148 0.54652651 308.13549905 0.5564824 C324.26589299 0.57676984 340.39628347 0.59933985 356.52667236 0.62329102 C357.63904473 0.6249385 357.63904473 0.6249385 358.77388928 0.62661926 C408.26052565 0.70017302 457.74704812 0.82709542 507.23355103 0.96203613 C507.30326532 8.40333866 507.35647048 15.84456999 507.38898754 23.28613377 C507.40459939 26.74210259 507.42575458 30.19784689 507.45986938 33.65368652 C507.49890042 37.63274385 507.51329735 41.61171236 507.52651978 45.59094238 C507.54200363 46.82349258 507.55748749 48.05604279 507.57344055 49.32594299 C507.57490308 56.81745219 507.25134238 62.21581238 502.42105103 68.21203613 C496.93515973 72.60074917 492.36583972 73.39895309 485.59515953 73.33676624 C484.73413779 73.34082697 483.87311605 73.34488769 482.98600274 73.34907147 C480.09288035 73.35903899 477.20024063 73.34757724 474.30712891 73.33625793 C472.21510224 73.33899779 470.12307696 73.34304923 468.03105509 73.34830159 C462.27572524 73.3589086 456.52055023 73.35074622 450.76522708 73.33955109 C444.56053915 73.33072328 438.35587179 73.33914862 432.15118408 73.34541321 C420.69507917 73.35436317 409.23904374 73.34972704 397.78294534 73.33824939 C387.19632283 73.32771514 376.60971807 73.32317364 366.02309036 73.32454491 C364.96992502 73.32467095 364.96992502 73.32467095 363.89548361 73.32479954 C361.04535713 73.32515179 358.19523066 73.32553581 355.34510419 73.32596512 C328.59933096 73.32993153 301.8535891 73.3172073 275.10782485 73.29643856 C251.35529206 73.27808073 227.60278937 73.27225319 203.85025024 73.27770996 C202.32597492 73.2780564 200.80169959 73.27840249 199.27742426 73.27874825 C198.52384683 73.27891925 197.7702694 73.27909024 196.9938563 73.27926642 C193.20029759 73.28011999 189.40673888 73.28094377 185.61318016 73.28173542 C184.49052228 73.28197104 184.49052228 73.28197104 183.34518444 73.28221142 C163.49256547 73.28620433 143.63994939 73.28072176 123.78733218 73.27222413 C121.65018874 73.2713171 119.5130453 73.27041145 117.37590186 73.2695089 C115.95820397 73.26890778 114.54050608 73.26829916 113.1228082 73.26768299 C103.24817559 73.26346529 93.37354867 73.26288186 83.49891544 73.26478848 C70.76734033 73.26723452 58.03580359 73.2629218 45.30423443 73.24757848 C39.16613561 73.24034072 33.02807888 73.23625216 26.8899765 73.24082184 C21.26796985 73.2449054 15.64605001 73.2397123 10.02405651 73.22719576 C7.99308223 73.22427373 5.96209974 73.22469214 3.93112759 73.22883884 C-27.33784951 73.28687135 -27.33784951 73.28687135 -38.32504272 63.49719238 C-46.50467561 54.78555086 -49.47798802 45.32904604 -49.17269897 33.52453613 C-48.03171979 23.51902637 -43.21902267 15.55425208 -35.76644897 8.96203613 C-24.32537063 0.07215711 -14.0365484 -0.16691295 0 0 Z " fill="#E4D6B5" transform="translate(305.7664489746094,947.0379638671875)"/>
<path d="M0 0 C119.79 0 239.58 0 363 0 C363.99 3.96 364.98 7.92 366 12 C370.36031657 21.32623267 376.11679227 28.38419229 386 32 C387.9924325 32.37593066 389.9918674 32.71979545 392 33 C392.99 33.66 393.98 34.32 395 35 C395.29769136 37.64213062 395.3965701 40.05065892 395.36914349 42.69558144 C395.37260502 43.50324337 395.37606655 44.31090531 395.37963298 45.14304185 C395.38764178 47.87863403 395.37405908 50.61370785 395.36076355 53.34927368 C395.36207046 55.31853083 395.36469475 57.28778749 395.36853105 59.25704134 C395.37527056 64.69113943 395.36319592 70.12506168 395.34819686 75.55913734 C395.33529048 81.41055438 395.33962212 87.2619608 395.34190369 93.11338806 C395.34347985 103.25892122 395.33403487 113.40439667 395.31719017 123.54991531 C395.29285112 138.21877919 395.2849901 152.88762473 395.2812262 167.55650692 C395.27492066 191.35344216 395.2546966 215.15034733 395.22631836 238.94726562 C395.19877666 262.06933431 395.17752015 285.19139477 395.16479492 308.31347656 C395.16420305 309.38207899 395.16420305 309.38207899 395.16359923 310.47226934 C395.15964376 317.62633181 395.1558163 324.78039433 395.15208265 331.93445692 C395.14447349 346.5088258 395.13600973 361.08319415 395.12702942 375.65756226 C395.12661755 376.32770589 395.12620568 376.99784953 395.12578133 377.68830055 C395.09816738 422.45887964 395.05056811 467.22944167 395 512 C394.34 512 393.68 512 393 512 C393 512.66 393 513.32 393 514 C390.92446352 514.5534764 389.15634036 515 387 515 C385.48546075 515.63294178 383.98698441 516.30478651 382.5 517 C378.22222222 519 378.22222222 519 376 519 C375.896875 519.598125 375.79375 520.19625 375.6875 520.8125 C374.89496146 523.33421352 374.08408591 524.39685699 372 526 C371.01 526 370.02 526 369 526 C368.83564453 526.87011719 368.83564453 526.87011719 368.66796875 527.7578125 C367.6856635 532.59746277 366.45178089 536.65366116 364 541 C363.34 541 362.68 541 362 541 C362 542.65 362 544.3 362 546 C316.04478231 546.04573451 270.08956703 546.08099735 224.13433108 546.10213066 C218.7142285 546.1046322 213.29412596 546.10722083 207.87402344 546.10986328 C206.79493613 546.1103879 205.71584881 546.11091252 204.60406189 546.11145304 C187.11021874 546.12016593 169.61638868 546.13594075 152.1225533 546.15430559 C134.18472762 546.17298008 116.24690881 546.18411152 98.30907381 546.18817699 C87.23215934 546.19092715 76.15528186 546.19962671 65.07837878 546.21583293 C57.49215108 546.2263696 49.90594262 546.22960819 42.31970812 546.22700275 C37.93675824 546.22571627 33.55387317 546.22774792 29.17093468 546.23841095 C25.16401297 546.24808851 21.15720015 546.24867102 17.15027361 546.24179779 C15.69533295 546.24094735 14.24038571 546.24353085 12.78545816 546.24976636 C10.81830992 546.25771165 8.85112093 546.25230531 6.88396645 546.24609566 C5.24015714 546.24723482 5.24015714 546.24723482 3.56313956 546.24839699 C1 546 1 546 -1 544 C-1.62848849 542.32879198 -2.20478835 540.63769948 -2.75 538.9375 C-4.45722131 534.05881139 -6.62448238 530.12961808 -9.62890625 525.94140625 C-11 524 -11 524 -12.5 521.0625 C-14.58660011 518.19342485 -16.6207589 517.87860269 -20 517 C-21.67163195 516.34588315 -23.34015202 515.68346682 -25 515 C-25 514.34 -25 513.68 -25 513 C-25.66 513 -26.32 513 -27 513 C-27 513.66 -27 514.32 -27 515 C-29.9375 514.625 -29.9375 514.625 -33 514 C-34.54595009 510.90809983 -34.13470149 507.65042649 -34.12304783 504.25756645 C-34.1247786 503.03847587 -34.1247786 503.03847587 -34.12654433 501.79475719 C-34.12921383 499.04209631 -34.12468609 496.28949268 -34.12025452 493.53683472 C-34.12069015 491.55520429 -34.12156491 489.57357392 -34.12284368 487.59194386 C-34.12509018 482.12369984 -34.12106524 476.65547523 -34.11606562 471.18723369 C-34.11176353 465.29900661 -34.11320737 459.4107807 -34.1139679 453.52255249 C-34.11452756 442.64706434 -34.11062988 431.7715833 -34.10462701 420.89609694 C-34.09912994 410.85169182 -34.0958975 400.80728881 -34.09487724 390.76288223 C-34.0948085 390.09757326 -34.09473976 389.43226428 -34.09466894 388.74679443 C-34.09433062 385.36819079 -34.09402923 381.98958715 -34.09374207 378.61098351 C-34.09164022 354.6643193 -34.08489885 330.71765842 -34.07543945 306.77099609 C-34.0662589 283.50341815 -34.05917339 260.23584111 -34.05493164 236.96826172 C-34.05480011 236.25137793 -34.05466859 235.53449415 -34.05453308 234.79588661 C-34.05321459 227.59681389 -34.05193877 220.39774117 -34.05069422 213.19866844 C-34.04815783 198.53260224 -34.04533658 183.86653609 -34.04234314 169.20046997 C-34.04220585 168.52610987 -34.04206856 167.85174976 -34.04192711 167.15695451 C-34.03272245 122.10463494 -34.01685602 77.05231728 -34 32 C-30.66666667 32 -27.33333333 32 -24 32 C-21.37444913 30.37054492 -21.37444913 30.37054492 -18.625 28.25 C-17.22121094 27.20585937 -17.22121094 27.20585937 -15.7890625 26.140625 C-14.86867188 25.43421875 -13.94828125 24.7278125 -13 24 C-12.12472656 23.40574219 -11.24945313 22.81148438 -10.34765625 22.19921875 C-7.35181784 19.39280107 -6.16118745 16.34251989 -4.8125 12.5625 C-4.56564453 11.90701172 -4.31878906 11.25152344 -4.06445312 10.57617188 C-3.36668426 8.72103705 -2.68296719 6.86063495 -2 5 C-1.34 3.35 -0.68 1.7 0 0 Z M11 18 C10.59964035 18.75359299 10.1992807 19.50718597 9.78678894 20.28361511 C9.2553981 21.27307632 8.72400726 22.26253754 8.17651367 23.28198242 C7.3903492 24.7526844 7.3903492 24.7526844 6.58830261 26.25309753 C4.55319206 29.77273552 2.23100566 32.51344205 -0.6875 35.3125 C-1.14060547 35.78494141 -1.59371094 36.25738281 -2.06054688 36.74414062 C-6.96865091 41.58618674 -11.48198483 43.444719 -18 47 C-18 196.49 -18 345.98 -18 500 C-11.565 503.465 -11.565 503.465 -5 507 C-2.525 508.485 -2.525 508.485 0 510 C0.99 510 1.98 510 3 510 C2.896875 510.763125 2.79375 511.52625 2.6875 512.3125 C2.790625 513.199375 2.89375 514.08625 3 515 C3.763125 515.433125 4.52625 515.86625 5.3125 516.3125 C8.58600804 518.36795854 9.5815632 520.26588074 11.3125 523.6875 C11.82425781 524.68136719 12.33601563 525.67523437 12.86328125 526.69921875 C13.23839844 527.45847656 13.61351562 528.21773437 14 529 C53.62726372 529.0229358 93.25452658 529.04053344 132.88179562 529.05106533 C137.57012287 529.0523159 142.25845011 529.05361023 146.94677734 529.05493164 C148.34670066 529.05532511 148.34670066 529.05532511 149.77490525 529.05572652 C164.84645108 529.06006671 179.91799305 529.06794512 194.9895366 529.0771528 C210.47759256 529.08653536 225.96564651 529.09206532 241.45370519 529.09408849 C250.99507693 529.09545419 260.53643778 529.09975279 270.07780616 529.10791647 C276.63863334 529.11324081 283.19945496 529.11479149 289.76028414 529.11350138 C293.5340636 529.1128668 297.30782417 529.11377395 301.08160019 529.11920547 C308.90118064 529.1296196 316.71975757 529.11383884 324.53905153 529.03459096 C326.82650018 529.01172872 329.11402052 528.99509789 331.40156126 528.98503184 C334.50096585 528.96427984 337.59726984 528.90701329 340.69589233 528.83665466 C342.03763344 528.83501897 342.03763344 528.83501897 343.40648043 528.83335024 C347.81247722 528.68819273 349.38723206 528.61250079 352.61397743 525.38716221 C354.27294403 522.55518896 354.27294403 522.55518896 355.16796875 519.46875 C355.44253906 518.6540625 355.71710938 517.839375 356 517 C356.99 516.67 357.98 516.34 359 516 C360.13899561 514.58471338 361.21567301 513.11849084 362.25 511.625 C365.43823871 507.39406687 367.89856038 505.70047987 373 504 C375.64 502.68 378.28 501.36 381 500 C381 350.51 381 201.02 381 47 C378.69 46.67 376.38 46.34 374 46 C369.99337149 43.80769383 367.76101672 42.19934755 366 38 C364.5833253 36.2488427 364.5833253 36.2488427 363 35 C362.34 35 361.68 35 361 35 C358.55947679 30.77601751 356.18404306 26.52301608 353.8515625 22.23828125 C353.31611816 21.25512939 352.78067383 20.27197754 352.22900391 19.2590332 C351.62064697 18.14081177 351.62064697 18.14081177 351 17 C318.80603241 16.97689588 286.6120673 16.95934366 254.41809328 16.94893467 C250.5667334 16.94768483 246.71537353 16.94639042 242.86401367 16.94506836 C241.714513 16.94467489 241.714513 16.94467489 240.54179009 16.94427348 C229.83670939 16.94051727 219.13163245 16.93437269 208.42655419 16.92626567 C189.96796376 16.91228952 171.50937729 16.90306071 153.05078125 16.90234375 C151.97366795 16.90228589 151.97366795 16.90228589 150.87479478 16.90222687 C104.2444251 16.90055095 57.62324709 17.12740243 11 18 Z " fill="#1E4E39" transform="translate(387,351)"/>
<path d="M0 0 C2.19151756 -0.0026183 4.38303327 -0.00787518 6.57453901 -0.015535 C12.58136071 -0.02892617 18.58753831 -0.00498597 24.59427798 0.02513337 C31.0774439 0.05107273 37.56057424 0.04227387 44.04377747 0.03771973 C55.27126471 0.03353988 66.49855573 0.05317159 77.72598839 0.08714676 C89.49808432 0.12267862 101.2700967 0.1457484 113.04224586 0.15226364 C113.77486718 0.15267608 114.50748849 0.15308852 115.26231044 0.15351345 C118.98309558 0.15554352 122.70388079 0.1573518 126.42466608 0.15907471 C152.76227824 0.17166901 179.09978138 0.21207027 205.43733215 0.26889038 C231.02000856 0.32401814 256.6026551 0.36650942 282.18537903 0.39193726 C283.36874221 0.39312099 283.36874221 0.39312099 284.57601172 0.39432864 C292.49873425 0.40223993 300.421457 0.40989479 308.34417995 0.4173618 C324.48292372 0.43257808 340.62166555 0.44950559 356.76040649 0.46746826 C357.87339667 0.46870387 357.87339667 0.46870387 359.0088715 0.46996444 C408.53739883 0.5251457 458.0658622 0.62033925 507.59431458 0.7215271 C507.66402887 8.16282963 507.71723403 15.60406096 507.74975109 23.04562473 C507.76536294 26.50159356 507.78651813 29.95733785 507.82063293 33.41317749 C507.85966397 37.39223482 507.87406089 41.37120332 507.88728333 45.35043335 C507.90276718 46.58298355 507.91825104 47.81553375 507.9342041 49.08543396 C507.93544341 55.43351176 507.6896644 60.13032209 504.59431458 65.7215271 C504.26431458 66.3815271 503.93431458 67.0415271 503.59431458 67.7215271 C501.94431458 67.7215271 500.29431458 67.7215271 498.59431458 67.7215271 C497.66007813 64.71120966 497.54981547 63.85502442 498.59431458 60.7215271 C498.70781306 59.26445793 498.77032932 57.80307751 498.79963684 56.34188843 C498.81958206 55.46120193 498.83952728 54.58051544 498.8600769 53.67314148 C498.8767894 52.72617905 498.89350189 51.77921661 498.91072083 50.80355835 C498.93150192 49.83117722 498.95228302 48.85879608 498.97369385 47.85694885 C499.03910205 44.74938045 499.09803387 41.64172725 499.15681458 38.5340271 C499.20000809 36.42789852 499.24362265 34.32177854 499.28767395 32.21566772 C499.39477456 27.05104119 499.49606676 21.88632932 499.59431458 16.7215271 C449.9695827 16.71420775 400.34485723 16.71405603 350.72013855 16.753479 C349.61838491 16.7543511 349.61838491 16.7543511 348.49437362 16.75524081 C332.53152207 16.76792072 316.56867195 16.7819329 300.60582278 16.79731739 C292.77760543 16.80485388 284.94938781 16.81209597 277.12117004 16.81918335 C275.9526696 16.82024878 275.9526696 16.82024878 274.76056309 16.82133574 C249.51250477 16.84421881 224.26448928 16.84766392 199.01642291 16.84102512 C173.06998649 16.83430539 147.12363197 16.84720342 121.17722007 16.88477326 C117.5121785 16.89007101 113.84713665 16.89514458 110.18209457 16.90008163 C109.46076425 16.90106025 108.73943393 16.90203886 107.99624512 16.90304713 C96.38643095 16.91822144 84.77671422 16.91272545 73.1669015 16.89949224 C61.49408658 16.88662861 49.82148367 16.89604313 38.14869733 16.92668863 C31.8244477 16.94264028 25.50058145 16.94881431 19.17633438 16.92891884 C13.38619142 16.91091736 7.59677408 16.92051994 1.80669515 16.95206593 C-0.28767504 16.95860626 -2.38210652 16.95502152 -4.47643499 16.94027318 C-19.51831245 16.63270737 -19.51831245 16.63270737 -32.40568542 23.7215271 C-32.96127117 24.15410108 -33.51685691 24.58667506 -34.08927858 25.03235734 C-36.42568237 26.88606812 -38.62612478 28.89376092 -40.86271667 30.86605835 C-43.49066433 32.78353167 -45.20743314 33.37126967 -48.40568542 33.7215271 C-47.99972537 24.79040599 -43.71067442 16.41939383 -37.21818542 10.3465271 C-35.62627883 9.12208702 -34.02075607 7.91524689 -32.40568542 6.7215271 C-31.70487199 6.17995165 -31.00405856 5.6383762 -30.28200835 5.08038938 C-20.91679828 -1.08633713 -10.77609381 -0.09567975 0 0 Z " fill="#BFB38A" transform="translate(305.4056854248047,947.2784729003906)"/>
<path d="M0 0 C-1.08959961 1.47729492 -1.08959961 1.47729492 -3 3 C-5.97094727 3.37231445 -5.97094727 3.37231445 -9.56640625 3.36328125 C-11.5009668 3.36231445 -11.5009668 3.36231445 -13.47460938 3.36132812 C-14.14516357 3.35302979 -14.81571777 3.34473145 -15.5065918 3.33618164 C-17.55882888 3.31254229 -19.60977033 3.31562852 -21.66210938 3.32226562 C-31.73315282 3.26684718 -31.73315282 3.26684718 -34 1 C-29.6405528 0.68923581 -25.28065376 0.3862924 -20.92016602 0.09057617 C-19.43694424 -0.01111656 -17.95386712 -0.11494275 -16.47094727 -0.22094727 C-14.3390494 -0.37297078 -12.20674855 -0.51730714 -10.07421875 -0.66015625 C-8.79119873 -0.74918213 -7.50817871 -0.83820801 -6.1862793 -0.92993164 C-3 -1 -3 -1 0 0 Z " fill="#265740" transform="translate(813,944)"/>
<path d="M0 0 C0.89203125 0.10183594 1.7840625 0.20367188 2.703125 0.30859375 C3.37859375 0.39238281 4.0540625 0.47617187 4.75 0.5625 C4.75 1.2225 4.75 1.8825 4.75 2.5625 C-0.2 2.5625 -5.15 2.5625 -10.25 2.5625 C-9.25 0.5625 -9.25 0.5625 -7.515625 -0.08984375 C-4.88480179 -0.49353904 -2.64068309 -0.31271247 0 0 Z " fill="#265740" transform="translate(543.25,944.4375)"/>
<path d="M0 0 C1.35158203 0.15275391 1.35158203 0.15275391 2.73046875 0.30859375 C3.41753906 0.39238281 4.10460937 0.47617187 4.8125 0.5625 C4.8125 1.2225 4.8125 1.8825 4.8125 2.5625 C0.5225 2.5625 -3.7675 2.5625 -8.1875 2.5625 C-8.1875 1.9025 -8.1875 1.2425 -8.1875 0.5625 C-4.98734144 -0.50421952 -3.30205706 -0.38595472 0 0 Z " fill="#265840" transform="translate(567.1875,944.4375)"/>
<path d="M0 0 C0.66 0.33 1.32 0.66 2 1 C1.01 1.33 0.02 1.66 -1 2 C-1.28875 2.825 -1.5775 3.65 -1.875 4.5 C-2.24625 5.325 -2.6175 6.15 -3 7 C-5.625 7.8125 -5.625 7.8125 -8 8 C-6.49776416 3.79373966 -3.71449966 2.26099979 0 0 Z " fill="#315F4A" transform="translate(261,312)"/>
<path d="M0 0 C0.66 0.33 1.32 0.66 2 1 C1.75 4.375 1.75 4.375 1 8 C-1.0625 9.4375 -1.0625 9.4375 -3 10 C-1.125 2.25 -1.125 2.25 0 0 Z " fill="#426D59" transform="translate(239,336)"/>
</svg>
