<?xml version="1.0" standalone="no"?>
<!DOCTYPE svg PUBLIC "-//W3C//DTD SVG 20010904//EN"
 "http://www.w3.org/TR/2001/REC-SVG-20010904/DTD/svg10.dtd">
<svg version="1.0" xmlns="http://www.w3.org/2000/svg"
 width="1080.000000pt" height="1920.000000pt" viewBox="0 0 1080.000000 1920.000000"
 preserveAspectRatio="xMidYMid meet">

<g transform="translate(0.000000,1920.000000) scale(0.100000,-0.100000)"
fill="#000000" stroke="none">
<path d="M2888 16140 l-156 -5 -88 -45 c-63 -32 -92 -53 -107 -77 -10 -18 -25
-33 -32 -33 -7 0 -25 -15 -39 -32 -15 -18 -31 -39 -37 -46 -26 -31 -61 -140
-69 -215 -6 -50 -9 -1041 -7 -2510 1 -1364 -2 -2427 -7 -2427 -4 0 -6 -12 -2
-27 3 -16 6 -309 6 -653 0 -641 8 -858 33 -907 7 -15 27 -55 43 -88 32 -66
150 -191 190 -201 13 -3 24 -10 24 -15 0 -5 3 -8 8 -7 4 1 28 -8 53 -19 25
-12 61 -24 80 -27 19 -3 48 -8 64 -11 24 -4 26 -3 10 4 -15 7 -3 10 45 10 44
0 58 -3 45 -9 -15 -6 1465 -7 1650 0 22 1 60 -2 83 -6 28 -4 48 -2 55 5 6 6
18 11 27 11 13 0 13 -1 0 -10 -11 -7 -1 -10 35 -10 38 0 46 3 35 11 -11 8 -8
9 15 4 53 -12 262 -16 245 -5 -10 7 16 10 85 9 61 0 92 -4 80 -8 -24 -10 466
-7 510 3 23 5 25 4 10 -3 -13 -6 52 -9 193 -9 135 0 209 4 200 10 -8 6 32 6
107 2 66 -5 134 -7 150 -6 17 1 105 5 198 8 122 4 167 2 167 -6 0 -8 24 -10
78 -7 252 14 292 15 292 6 0 -5 96 -8 228 -8 125 1 209 5 187 9 -27 4 -7 6 57
6 54 -1 98 -4 98 -8 0 -5 28 -8 63 -8 44 0 58 3 47 10 -10 7 6 9 55 9 52 -1
64 -3 45 -9 -38 -13 97 -4 145 9 53 15 121 55 117 69 -1 7 4 12 11 12 18 0 57
42 57 62 0 9 9 22 20 29 13 9 24 35 32 74 10 46 13 822 13 3410 0 3138 -1
3353 -17 3405 -32 101 -109 199 -163 206 -5 0 -16 2 -23 2 -7 1 -11 6 -8 11 6
10 -49 34 -103 46 -39 8 -4888 13 -5133 5z m5240 -6722 c-3 -338 -4 -339 -76
-388 l-36 -25 -2522 0 c-1388 -1 -2559 2 -2602 6 -44 4 -100 16 -125 27 -62
27 -133 100 -165 170 -23 49 -27 70 -27 147 0 82 3 97 33 157 36 74 91 129
168 168 l49 25 1335 5 c734 3 1928 6 2653 8 l1319 2 -4 -302z m-4791 -614 c-3
-3 -12 -4 -19 -1 -8 3 -5 6 6 6 11 1 17 -2 13 -5z m1596 -1 c-7 -2 -19 -2 -25
0 -7 3 -2 5 12 5 14 0 19 -2 13 -5z m500 0 c-7 -2 -19 -2 -25 0 -7 3 -2 5 12
5 14 0 19 -2 13 -5z m90 0 c-7 -2 -19 -2 -25 0 -7 3 -2 5 12 5 14 0 19 -2 13
-5z m445 0 c-15 -2 -42 -2 -60 0 -18 2 -6 4 27 4 33 0 48 -2 33 -4z m139 1
c-3 -3 -12 -4 -19 -1 -8 3 -5 6 6 6 11 1 17 -2 13 -5z m1171 -1 c-10 -2 -26
-2 -35 0 -10 3 -2 5 17 5 19 0 27 -2 18 -5z m105 0 c-7 -2 -19 -2 -25 0 -7 3
-2 5 12 5 14 0 19 -2 13 -5z m90 0 c-7 -2 -21 -2 -30 0 -10 3 -4 5 12 5 17 0
24 -2 18 -5z"/>
</g>
</svg>
